<svg width="2622" height="179" viewBox="0 0 2622 179" fill="none" xmlns="http://www.w3.org/2000/svg">
<path d="M73.0541 65.0375H24.7691V76.6375C25.0107 76.6375 25.2041 76.7341 25.3491 76.9275C25.4941 77.1208 25.6632 77.2175 25.8566 77.2175C25.7599 77.2175 26.7507 76.9516 28.8291 76.42C30.9074 75.84 33.2999 75.3083 36.0066 74.825C38.7132 74.3416 41.3474 74.1 43.9091 74.1C49.7091 74.1 54.2766 74.8975 57.6116 76.4925C60.9466 78.0875 63.3391 80.335 64.7891 83.235C66.2874 86.135 67.1816 89.3975 67.4716 93.0225C67.8099 96.5991 67.9791 101.529 67.9791 107.812V135.725C64.2574 134.275 61.5991 133.212 60.0041 132.535C58.4574 131.858 57.2733 131.351 56.4516 131.012C56.4516 129.466 56.1374 128.475 55.5091 128.04C53.9141 128.958 52.1258 129.973 50.1441 131.085C48.1624 132.148 45.5766 133.091 42.3866 133.912C39.1966 134.734 35.4024 135.145 31.0041 135.145C26.7991 135.145 22.6907 134.372 18.6791 132.825C14.6674 131.278 11.4049 129.079 8.89156 126.227C6.42656 123.327 5.19406 120.065 5.19406 116.44C5.19406 113.057 6.76489 109.528 9.90656 105.855C13.0482 102.133 17.2532 99.0641 22.5216 96.6475C27.7899 94.1825 33.5416 92.95 39.7766 92.95C43.1599 92.95 46.3741 93.4575 49.4191 94.4725C52.5124 95.4391 54.8566 96.5266 56.4516 97.735V91.065C54.4216 88.455 52.4883 86.6908 50.6516 85.7725C48.8149 84.8541 45.9391 84.395 42.0241 84.395C36.9491 84.5883 32.9374 85.0233 29.9891 85.7C27.0891 86.3283 23.9474 87.3433 20.5641 88.745C17.2291 90.0983 14.4257 91.1616 12.1541 91.935V86.57C12.4924 86.28 12.9757 85.8691 13.6041 85.3375C14.2324 84.8058 14.6432 84.4191 14.8366 84.1775C15.0782 83.9358 15.2232 83.7908 15.2716 83.7425V65.0375H0.409056V56.3374H73.0541V65.0375ZM56.4516 110.93C56.4516 108.707 53.9383 106.846 48.9116 105.347C43.9333 103.849 40.4049 103.1 38.3266 103.1C33.0582 103.1 28.2732 104.212 23.9716 106.435C19.6699 108.61 16.2866 111.172 13.8216 114.12C11.3566 117.068 10.1241 119.485 10.1241 121.37C10.7041 123.352 12.1782 124.729 14.5466 125.502C16.9149 126.276 19.4282 126.662 22.0866 126.662C27.0166 126.662 31.5599 126.01 35.7166 124.705C39.9216 123.4 43.5708 121.805 46.6641 119.92C49.8058 118.035 52.2224 116.222 53.9141 114.482C55.6058 112.742 56.4516 111.558 56.4516 110.93ZM146.497 65.0375H138.594V92.515C135.791 90.8716 131.779 89.4458 126.559 88.2375C121.339 87.0291 116.892 86.425 113.219 86.425C110.174 86.425 106.525 86.7875 102.272 87.5125C98.0666 88.1891 94.2725 89.4216 90.8891 91.21C87.5541 92.95 85.8866 95.27 85.8866 98.17C85.8866 99.3783 86.37 100.659 87.3366 102.012C88.3516 103.317 89.8983 103.97 91.9766 103.97C94.2483 103.97 97.535 103.197 101.837 101.65C106.187 100.055 109.377 98.9675 111.407 98.3875C113.485 97.7591 116.506 97.445 120.469 97.445C124.191 97.445 127.719 98.1216 131.054 99.475C134.437 100.78 137.12 102.689 139.102 105.202C141.132 107.716 142.147 110.616 142.147 113.902C142.147 117.817 140.721 121.37 137.869 124.56C135.017 127.75 131.586 130.263 127.574 132.1C123.611 133.888 119.817 134.903 116.192 135.145C119.672 138.625 122.982 140.365 126.124 140.365C127.139 140.365 128.227 140.22 129.387 139.93L136.709 151.893C136.322 152.231 135.38 152.642 133.882 153.125C132.432 153.608 130.305 153.85 127.502 153.85C123.49 153.85 120.445 152.714 118.367 150.443C116.288 148.171 114.137 145.102 111.914 141.235C109.739 137.368 107.951 135.435 106.549 135.435C102.924 135.29 99.3233 134.927 95.7466 134.347C92.2183 133.719 88.9316 132.462 85.8866 130.577C82.8416 128.692 81.3191 126.107 81.3191 122.82C81.3191 120.645 82.0441 119.098 83.4941 118.18C84.9925 117.213 86.6841 116.73 88.5691 116.73C90.8891 116.73 92.75 117.068 94.1516 117.745C95.5533 118.422 97.2691 119.461 99.2991 120.862C101.377 122.216 103.432 123.255 105.462 123.98C107.54 124.705 110.319 125.067 113.799 125.067C116.264 125.067 119.527 124.632 123.587 123.762C127.695 122.892 131.32 121.612 134.462 119.92C137.603 118.18 139.174 116.077 139.174 113.612C139.174 112.259 138.691 111.172 137.724 110.35C136.757 109.48 135.646 108.9 134.389 108.61C133.132 108.272 131.827 108.102 130.474 108.102C128.686 108.102 126.777 108.368 124.747 108.9C122.765 109.432 118.898 110.471 113.147 112.017C107.395 113.564 103.867 114.337 102.562 114.337C99.2266 114.337 95.795 113.395 92.2666 111.51C88.7866 109.577 85.8625 106.894 83.4941 103.462C81.1741 100.031 79.9899 96.285 79.9416 92.225C79.9416 87.8266 81.5849 84.2741 84.8716 81.5675C88.1583 78.8125 92.0975 76.855 96.6891 75.695C101.281 74.535 105.607 73.955 109.667 73.955C112.373 73.955 115.781 74.39 119.889 75.26C124.046 76.0816 127.212 76.7825 129.387 77.3625V65.0375H71.6766V56.3374H146.497V65.0375ZM216.604 65.0375H168.319V76.6375C168.561 76.6375 168.754 76.7341 168.899 76.9275C169.044 77.1208 169.213 77.2175 169.407 77.2175C169.31 77.2175 170.301 76.9516 172.379 76.42C174.458 75.84 176.85 75.3083 179.557 74.825C182.263 74.3416 184.898 74.1 187.459 74.1C193.259 74.1 197.827 74.8975 201.162 76.4925C204.497 78.0875 206.889 80.335 208.339 83.235C209.838 86.135 210.732 89.3975 211.022 93.0225C211.36 96.5991 211.529 101.529 211.529 107.812V135.725C207.808 134.275 205.149 133.212 203.554 132.535C202.008 131.858 200.823 131.351 200.002 131.012C200.002 129.466 199.688 128.475 199.059 128.04C197.464 128.958 195.676 129.973 193.694 131.085C191.713 132.148 189.127 133.091 185.937 133.912C182.747 134.734 178.953 135.145 174.554 135.145C170.349 135.145 166.241 134.372 162.229 132.825C158.218 131.278 154.955 129.079 152.442 126.227C149.977 123.327 148.744 120.065 148.744 116.44C148.744 113.057 150.315 109.528 153.457 105.855C156.598 102.133 160.803 99.0641 166.072 96.6475C171.34 94.1825 177.092 92.95 183.327 92.95C186.71 92.95 189.924 93.4575 192.969 94.4725C196.063 95.4391 198.407 96.5266 200.002 97.735V91.065C197.972 88.455 196.038 86.6908 194.202 85.7725C192.365 84.8541 189.489 84.395 185.574 84.395C180.499 84.5883 176.488 85.0233 173.539 85.7C170.639 86.3283 167.498 87.3433 164.114 88.745C160.779 90.0983 157.976 91.1616 155.704 91.935V86.57C156.043 86.28 156.526 85.8691 157.154 85.3375C157.783 84.8058 158.193 84.4191 158.387 84.1775C158.628 83.9358 158.773 83.7908 158.822 83.7425V65.0375H143.959V56.3374H216.604V65.0375ZM200.002 110.93C200.002 108.707 197.488 106.846 192.462 105.347C187.483 103.849 183.955 103.1 181.877 103.1C176.608 103.1 171.823 104.212 167.522 106.435C163.22 108.61 159.837 111.172 157.372 114.12C154.907 117.068 153.674 119.485 153.674 121.37C154.254 123.352 155.728 124.729 158.097 125.502C160.465 126.276 162.978 126.662 165.637 126.662C170.567 126.662 175.11 126.01 179.267 124.705C183.472 123.4 187.121 121.805 190.214 119.92C193.356 118.035 195.773 116.222 197.464 114.482C199.156 112.742 200.002 111.558 200.002 110.93ZM298.674 65.0375H215.517V56.3374H298.674V65.0375ZM292.874 105.13C292.874 110.398 291.279 115.377 288.089 120.065C284.899 124.705 280.936 128.378 276.199 131.085C271.511 133.792 267.113 135.145 263.004 135.145C259.283 135.145 255.271 133.622 250.969 130.577C246.716 127.532 241.472 123.062 235.237 117.165V178.645L223.637 172.555V76.6375H234.947V94.3275C235.817 93.4091 237.267 91.8625 239.297 89.6875C241.375 87.5125 243.743 85.2408 246.402 82.8725C249.06 80.4558 251.984 78.3291 255.174 76.4925C258.364 74.6075 261.361 73.665 264.164 73.665C266.823 73.665 269.795 74.5833 273.082 76.42C276.417 78.2083 279.583 80.6008 282.579 83.5975C285.624 86.5941 288.089 90.0016 289.974 93.82C291.908 97.59 292.874 101.36 292.874 105.13ZM285.697 96.72C285.697 95.56 285.213 93.9408 284.247 91.8625C283.328 89.7841 281.903 87.8991 279.969 86.2075C278.036 84.4675 275.643 83.5975 272.792 83.5975C269.602 83.5975 266.025 84.6608 262.062 86.7875C258.098 88.9141 254.328 91.5966 250.752 94.835C247.175 98.025 244.227 101.312 241.907 104.695C239.635 108.03 238.499 110.761 238.499 112.887C238.499 114.386 239.345 115.932 241.037 117.527C242.728 119.074 244.903 120.403 247.562 121.515C250.22 122.578 252.854 123.11 255.464 123.11C259.814 123.11 263.874 122.192 267.644 120.355C271.463 118.47 274.677 116.15 277.287 113.395C279.945 110.64 281.999 107.764 283.449 104.767C284.948 101.722 285.697 99.04 285.697 96.72ZM394.737 65.0375H344.857V56.3374H394.737V65.0375ZM389.662 91.935C389.275 92.4183 388.043 93.2641 385.964 94.4725C383.886 95.6808 382.194 96.6716 380.889 97.445H351.527L360.154 91.935H389.662ZM512.984 65.0375H464.699V76.6375C464.941 76.6375 465.134 76.7341 465.279 76.9275C465.424 77.1208 465.594 77.2175 465.787 77.2175C465.69 77.2175 466.681 76.9516 468.759 76.42C470.838 75.84 473.23 75.3083 475.937 74.825C478.644 74.3416 481.278 74.1 483.839 74.1C489.639 74.1 494.207 74.8975 497.542 76.4925C500.877 78.0875 503.269 80.335 504.719 83.235C506.218 86.135 507.112 89.3975 507.402 93.0225C507.74 96.5991 507.909 101.529 507.909 107.812V135.725C504.188 134.275 501.529 133.212 499.934 132.535C498.388 131.858 497.204 131.351 496.382 131.012C496.382 129.466 496.068 128.475 495.439 128.04C493.844 128.958 492.056 129.973 490.074 131.085C488.093 132.148 485.507 133.091 482.317 133.912C479.127 134.734 475.333 135.145 470.934 135.145C466.729 135.145 462.621 134.372 458.609 132.825C454.598 131.278 451.335 129.079 448.822 126.227C446.357 123.327 445.124 120.065 445.124 116.44C445.124 113.057 446.695 109.528 449.837 105.855C452.979 102.133 457.184 99.0641 462.452 96.6475C467.72 94.1825 473.472 92.95 479.707 92.95C483.09 92.95 486.304 93.4575 489.349 94.4725C492.443 95.4391 494.787 96.5266 496.382 97.735V91.065C494.352 88.455 492.419 86.6908 490.582 85.7725C488.745 84.8541 485.869 84.395 481.954 84.395C476.879 84.5883 472.868 85.0233 469.919 85.7C467.019 86.3283 463.878 87.3433 460.494 88.745C457.159 90.0983 454.356 91.1616 452.084 91.935V86.57C452.423 86.28 452.906 85.8691 453.534 85.3375C454.163 84.8058 454.574 84.4191 454.767 84.1775C455.009 83.9358 455.154 83.7908 455.202 83.7425V65.0375H440.339V56.3374H512.984V65.0375ZM496.382 110.93C496.382 108.707 493.869 106.846 488.842 105.347C483.864 103.849 480.335 103.1 478.257 103.1C472.989 103.1 468.204 104.212 463.902 106.435C459.6 108.61 456.217 111.172 453.752 114.12C451.287 117.068 450.054 119.485 450.054 121.37C450.634 123.352 452.109 124.729 454.477 125.502C456.845 126.276 459.359 126.662 462.017 126.662C466.947 126.662 471.49 126.01 475.647 124.705C479.852 123.4 483.501 121.805 486.594 119.92C489.736 118.035 492.153 116.222 493.844 114.482C495.536 112.742 496.382 111.558 496.382 110.93ZM583.309 65.0375H535.024V76.6375C535.266 76.6375 535.459 76.7341 535.604 76.9275C535.749 77.1208 535.919 77.2175 536.112 77.2175C536.015 77.2175 537.006 76.9275 539.084 76.3475C541.211 75.7675 543.628 75.26 546.334 74.825C549.041 74.3416 551.651 74.1 554.164 74.1C559.964 74.1 564.532 74.8975 567.867 76.4925C571.202 78.0875 573.594 80.335 575.044 83.235C576.543 86.135 577.437 89.3975 577.727 93.0225C578.065 96.5991 578.234 101.529 578.234 107.812V136.45C575.576 135.387 573.184 134.347 571.057 133.332C568.93 132.269 567.456 131.496 566.634 131.012C566.634 129.417 566.344 128.427 565.764 128.04C564.169 128.958 562.381 129.973 560.399 131.085C558.418 132.148 555.832 133.091 552.642 133.912C549.452 134.734 545.658 135.145 541.259 135.145C537.054 135.145 532.946 134.372 528.934 132.825C524.923 131.278 521.66 129.079 519.147 126.227C516.682 123.327 515.449 120.065 515.449 116.44C515.449 113.057 517.02 109.528 520.162 105.855C523.304 102.133 527.509 99.0641 532.777 96.6475C538.045 94.1825 543.797 92.95 550.032 92.95C553.415 92.95 556.629 93.4575 559.674 94.4725C562.719 95.4391 565.039 96.5266 566.634 97.735V91.065C564.749 88.5516 562.864 86.8116 560.979 85.845C559.094 84.8783 556.194 84.395 552.279 84.395C547.204 84.5883 543.193 85.0233 540.244 85.7C537.344 86.3283 534.203 87.3433 530.819 88.745C527.484 90.0983 524.681 91.1616 522.409 91.935V86.57C522.748 86.28 523.231 85.8691 523.859 85.3375C524.488 84.8058 524.899 84.4191 525.092 84.1775C525.334 83.9358 525.479 83.7908 525.527 83.7425V65.0375H510.664V56.3374H583.309V65.0375ZM566.634 110.93C566.634 108.707 564.145 106.846 559.167 105.347C554.189 103.849 550.66 103.1 548.582 103.1C543.314 103.1 538.504 104.212 534.154 106.435C529.853 108.658 526.469 111.244 524.004 114.192C521.539 117.092 520.307 119.485 520.307 121.37C520.984 123.4 522.482 124.802 524.802 125.575C527.17 126.3 529.684 126.662 532.342 126.662C537.272 126.662 541.839 126.01 546.044 124.705C550.298 123.4 553.971 121.805 557.064 119.92C560.158 117.987 562.526 116.15 564.169 114.41C565.813 112.67 566.634 111.51 566.634 110.93ZM664.8 65.0375H581.642V56.3374H664.8V65.0375ZM659 105.13C659 110.398 657.405 115.377 654.215 120.065C651.025 124.705 647.061 128.378 642.325 131.085C637.636 133.792 633.238 135.145 629.129 135.145C625.408 135.145 621.396 133.622 617.094 130.577C612.841 127.532 607.597 123.062 601.362 117.165V178.645L589.762 172.555V76.6375H601.072V94.3275C601.942 93.4091 603.392 91.8625 605.422 89.6875C607.5 87.5125 609.869 85.2408 612.527 82.8725C615.185 80.4558 618.109 78.3291 621.299 76.4925C624.489 74.6075 627.486 73.665 630.289 73.665C632.948 73.665 635.92 74.5833 639.207 76.42C642.542 78.2083 645.708 80.6008 648.705 83.5975C651.75 86.5941 654.215 90.0016 656.1 93.82C658.033 97.59 659 101.36 659 105.13ZM651.822 96.72C651.822 95.56 651.339 93.9408 650.372 91.8625C649.454 89.7841 648.028 87.8991 646.095 86.2075C644.161 84.4675 641.769 83.5975 638.917 83.5975C635.727 83.5975 632.15 84.6608 628.187 86.7875C624.224 88.9141 620.454 91.5966 616.877 94.835C613.3 98.025 610.352 101.312 608.032 104.695C605.76 108.03 604.624 110.761 604.624 112.887C604.624 114.386 605.47 115.932 607.162 117.527C608.854 119.074 611.029 120.403 613.687 121.515C616.345 122.578 618.979 123.11 621.589 123.11C625.939 123.11 629.999 122.192 633.769 120.355C637.588 118.47 640.802 116.15 643.412 113.395C646.07 110.64 648.125 107.764 649.575 104.767C651.073 101.722 651.822 99.04 651.822 96.72ZM740.78 65.0375H724.467V84.975C724.467 85.41 725.144 86.28 726.497 87.585C727.899 88.8416 729.131 90.1225 730.195 91.4275C731.306 92.7325 732.321 94.69 733.24 97.3C734.206 99.8616 734.69 103.027 734.69 106.797C734.69 111.921 733.385 116.682 730.775 121.08C728.165 125.478 724.564 128.934 719.972 131.447C715.38 133.912 710.33 135.145 704.82 135.145C701.195 135.145 697.183 134.227 692.785 132.39C688.386 130.505 684.205 127.919 680.242 124.632C676.327 121.346 673.161 117.648 670.745 113.54C668.328 109.383 667.119 105.106 667.119 100.707C667.119 97.5175 668.28 93.8441 670.6 89.6875C672.92 85.5308 676.255 81.9541 680.605 78.9575C685.003 75.9125 690.271 74.39 696.41 74.39C699.793 74.39 704.795 75.2841 711.417 77.0725C711.707 77.0725 711.852 76.8791 711.852 76.4925V65.0375H662.117V56.3374H740.78V65.0375ZM724.032 97.155C724.032 93.4816 723.09 90.5091 721.205 88.2375C719.368 85.9658 717.29 84.395 714.97 83.525C712.698 82.6066 710.813 82.1475 709.315 82.1475C706.995 82.1475 704.046 82.8241 700.47 84.1775C696.941 85.4825 693.437 87.4883 689.957 90.195C686.477 92.9016 683.577 96.3091 681.257 100.417C678.985 104.477 677.85 109.069 677.85 114.192C677.85 116.319 678.575 118.397 680.025 120.427C681.475 122.457 683.36 124.125 685.68 125.43C688 126.687 690.392 127.315 692.857 127.315C695.322 127.315 698.391 126.542 702.065 124.995C705.738 123.448 709.218 121.346 712.505 118.687C715.84 115.981 718.595 112.791 720.77 109.117C722.945 105.444 724.032 101.457 724.032 97.155ZM816.905 65.0375H800.592V84.975C800.592 85.41 801.269 86.28 802.622 87.585C804.024 88.8416 805.256 90.1225 806.32 91.4275C807.431 92.7325 808.446 94.69 809.365 97.3C810.331 99.8616 810.815 103.027 810.815 106.797C810.815 111.921 809.51 116.682 806.9 121.08C804.29 125.478 800.689 128.934 796.097 131.447C791.505 133.912 786.455 135.145 780.945 135.145C777.32 135.145 773.308 134.227 768.91 132.39C764.511 130.505 760.33 127.919 756.367 124.632C752.452 121.346 749.286 117.648 746.87 113.54C744.453 109.383 743.245 105.106 743.245 100.707C743.245 97.5175 744.405 93.8441 746.725 89.6875C749.045 85.5308 752.38 81.9541 756.73 78.9575C761.128 75.9125 766.396 74.39 772.535 74.39C775.918 74.39 780.92 75.2841 787.542 77.0725C787.832 77.0725 787.977 76.8791 787.977 76.4925V65.0375H738.242V56.3374H816.905V65.0375ZM800.157 97.155C800.157 93.4816 799.215 90.5091 797.33 88.2375C795.493 85.9658 793.415 84.395 791.095 83.525C788.823 82.6066 786.938 82.1475 785.44 82.1475C783.12 82.1475 780.171 82.8241 776.595 84.1775C773.066 85.4825 769.562 87.4883 766.082 90.195C762.602 92.9016 759.702 96.3091 757.382 100.417C755.11 104.477 753.975 109.069 753.975 114.192C753.975 116.319 754.7 118.397 756.15 120.427C757.6 122.457 759.485 124.125 761.805 125.43C764.125 126.687 766.517 127.315 768.982 127.315C771.447 127.315 774.516 126.542 778.19 124.995C781.863 123.448 785.343 121.346 788.63 118.687C791.965 115.981 794.72 112.791 796.895 109.117C799.07 105.444 800.157 101.457 800.157 97.155ZM888.245 65.0375H814.947V56.3374H888.245V65.0375ZM882.227 91.065C882.227 94.2066 880.439 97.445 876.862 100.78C873.334 104.115 870.361 106.362 867.945 107.522L857.07 95.1975C861.13 94.8108 864.537 93.3608 867.292 90.8475C870.095 88.2858 871.497 85.7725 871.497 83.3075C871.497 82.2925 870.7 81.0841 869.105 79.6825C867.51 78.2325 865.431 77.5075 862.87 77.5075C859.728 77.5075 856.175 78.9575 852.212 81.8575C848.249 84.7575 844.865 88.5033 842.062 93.095C839.307 97.6866 837.93 102.302 837.93 106.942V137.683L824.01 130.432V76.7825H838.075V82.2925C838.461 81.9058 839.887 81.0116 842.352 79.61C844.817 78.2083 847.669 76.9516 850.907 75.84C854.194 74.68 857.505 74.1 860.84 74.1C863.643 74.1 866.712 74.8008 870.047 76.2025C873.43 77.5558 876.306 79.5375 878.675 82.1475C881.043 84.7575 882.227 87.73 882.227 91.065ZM951.175 65.0375H914.49V123.4C914.49 125.092 915.07 126.735 916.23 128.33C917.438 129.925 918.743 130.722 920.145 130.722C927.346 130.722 930.947 123.279 930.947 108.392L945.52 116.73C943.151 121.998 939.913 126.397 935.805 129.925C931.745 133.405 926.38 135.145 919.71 135.145C916.375 135.097 913.306 134.227 910.502 132.535C907.747 130.795 905.548 128.596 903.905 125.937C902.261 123.231 901.44 120.548 901.44 117.89V65.0375H886.287V56.3374H901.44V31.9774L914.49 41.0399V56.3374H951.175V65.0375ZM1029.84 65.0375H971.33V86.86C972.393 85.7 973.601 84.4191 974.955 83.0175C976.308 81.6158 977.855 80.2866 979.595 79.03C981.335 77.7733 983.461 76.6858 985.975 75.7675C988.488 74.8491 991.316 74.39 994.457 74.39C1000.4 74.39 1005.65 76.0333 1010.19 79.32C1014.78 82.5583 1018.36 86.715 1020.92 91.79C1023.48 96.865 1024.76 101.867 1024.76 106.797C1024.76 111.921 1023.53 116.657 1021.06 121.007C1018.6 125.357 1016.13 128.741 1013.67 131.157C1011.2 133.574 1009.37 135.242 1008.16 136.16L996.27 129.055C996.946 128.088 998.396 126.469 1000.62 124.197C1002.84 121.926 1004.8 119.678 1006.49 117.455C1008.18 115.232 1009.68 112.452 1010.99 109.117C1012.29 105.782 1012.97 102.037 1013.02 97.88C1013.02 92.805 1011.81 88.6966 1009.39 85.555C1006.98 82.365 1003.64 80.77 999.387 80.77C995.424 80.915 991.195 82.3408 986.7 85.0475C982.253 87.7541 978.507 91.1375 975.462 95.1975C972.417 99.2575 970.895 103.172 970.895 106.942V135.725L957.337 128.475V65.0375H949.362V56.3374H957.337C957.337 48.5074 956.226 41.4991 954.002 35.3124C951.779 29.0774 949.193 23.9541 946.245 19.9424C943.296 15.9308 940.759 12.9582 938.632 11.0249C936.457 9.09158 934.886 7.81075 933.92 7.18241L948.565 7.03741C952.093 8.97075 955.621 12.5232 959.15 17.6949C962.726 22.8183 965.651 28.8841 967.922 35.8924C970.194 42.8524 971.33 49.6674 971.33 56.3374H1029.84V65.0375ZM1053.62 48.7249C1053.42 48.9183 1052.87 49.0149 1051.95 49.0149C1051.18 49.0149 1050.5 48.9183 1049.92 48.7249C1046.44 41.9099 1044.22 37.7533 1043.25 36.2549C1042.19 34.8049 1040.83 33.8624 1039.19 33.4274C1037.59 32.9924 1036.07 32.5816 1034.62 32.1949C1033.22 31.7599 1032.08 30.7933 1031.21 29.2949C1031.02 29.0049 1030.66 27.8933 1030.13 25.9599C1029.6 23.9783 1028.56 21.6824 1027.01 19.0724V17.4049H1029.84C1035.49 19.1449 1039.5 20.7399 1041.87 22.1899C1044.24 23.5916 1045.74 24.9691 1046.37 26.3224C1047.04 27.6274 1047.99 30.3583 1049.19 34.5149C1050.4 38.6233 1051.83 42.3208 1053.47 45.6074C1053.52 46.0424 1053.54 46.4533 1053.54 46.8399C1053.59 47.1783 1053.62 47.8066 1053.62 48.7249ZM1057.89 65.0375H1028.39V56.3374H1057.89V65.0375ZM1049.63 136.668L1037.45 129.925V73.955H1049.63V136.668ZM1179.33 65.0375H1171.43V92.515C1168.63 90.8716 1164.61 89.4458 1159.39 88.2375C1154.17 87.0291 1149.73 86.425 1146.05 86.425C1143.01 86.425 1139.36 86.7875 1135.11 87.5125C1130.9 88.1891 1127.11 89.4216 1123.72 91.21C1120.39 92.95 1118.72 95.27 1118.72 98.17C1118.72 99.3783 1119.21 100.659 1120.17 102.012C1121.19 103.317 1122.73 103.97 1124.81 103.97C1127.08 103.97 1130.37 103.197 1134.67 101.65C1139.02 100.055 1142.21 98.9675 1144.24 98.3875C1146.32 97.7591 1149.34 97.445 1153.3 97.445C1157.03 97.445 1160.55 98.1216 1163.89 99.475C1167.27 100.78 1169.96 102.689 1171.94 105.202C1173.97 107.716 1174.98 110.616 1174.98 113.902C1174.98 117.817 1173.56 121.37 1170.7 124.56C1167.85 127.75 1164.42 130.263 1160.41 132.1C1156.45 133.888 1152.65 134.903 1149.03 135.145C1152.51 138.625 1155.82 140.365 1158.96 140.365C1159.97 140.365 1161.06 140.22 1162.22 139.93L1169.54 151.893C1169.16 152.231 1168.22 152.642 1166.72 153.125C1165.27 153.608 1163.14 153.85 1160.34 153.85C1156.33 153.85 1153.28 152.714 1151.2 150.443C1149.12 148.171 1146.97 145.102 1144.75 141.235C1142.57 137.368 1140.79 135.435 1139.38 135.435C1135.76 135.29 1132.16 134.927 1128.58 134.347C1125.05 133.719 1121.77 132.462 1118.72 130.577C1115.68 128.692 1114.15 126.107 1114.15 122.82C1114.15 120.645 1114.88 119.098 1116.33 118.18C1117.83 117.213 1119.52 116.73 1121.4 116.73C1123.72 116.73 1125.59 117.068 1126.99 117.745C1128.39 118.422 1130.1 119.461 1132.13 120.862C1134.21 122.216 1136.27 123.255 1138.3 123.98C1140.38 124.705 1143.15 125.067 1146.63 125.067C1149.1 125.067 1152.36 124.632 1156.42 123.762C1160.53 122.892 1164.16 121.612 1167.3 119.92C1170.44 118.18 1172.01 116.077 1172.01 113.612C1172.01 112.259 1171.53 111.172 1170.56 110.35C1169.59 109.48 1168.48 108.9 1167.22 108.61C1165.97 108.272 1164.66 108.102 1163.31 108.102C1161.52 108.102 1159.61 108.368 1157.58 108.9C1155.6 109.432 1151.73 110.471 1145.98 112.017C1140.23 113.564 1136.7 114.337 1135.4 114.337C1132.06 114.337 1128.63 113.395 1125.1 111.51C1121.62 109.577 1118.7 106.894 1116.33 103.462C1114.01 100.031 1112.83 96.285 1112.78 92.225C1112.78 87.8266 1114.42 84.2741 1117.71 81.5675C1120.99 78.8125 1124.93 76.855 1129.52 75.695C1134.12 74.535 1138.44 73.955 1142.5 73.955C1145.21 73.955 1148.62 74.39 1152.72 75.26C1156.88 76.0816 1160.05 76.7825 1162.22 77.3625V65.0375H1104.51V56.3374H1179.33V65.0375ZM1258.21 65.0375H1199.7V86.86C1200.77 85.7 1201.98 84.4191 1203.33 83.0175C1204.68 81.6158 1206.23 80.2866 1207.97 79.03C1209.71 77.7733 1211.84 76.6858 1214.35 75.7675C1216.86 74.8491 1219.69 74.39 1222.83 74.39C1228.78 74.39 1234.02 76.0333 1238.56 79.32C1243.16 82.5583 1246.73 86.715 1249.29 91.79C1251.86 96.865 1253.14 101.867 1253.14 106.797C1253.14 111.921 1251.9 116.657 1249.44 121.007C1246.97 125.357 1244.51 128.741 1242.04 131.157C1239.58 133.574 1237.74 135.242 1236.53 136.16L1224.64 129.055C1225.32 128.088 1226.77 126.469 1228.99 124.197C1231.22 121.926 1233.18 119.678 1234.87 117.455C1236.56 115.232 1238.06 112.452 1239.36 109.117C1240.67 105.782 1241.34 102.037 1241.39 97.88C1241.39 92.805 1240.18 88.6966 1237.77 85.555C1235.35 82.365 1232.02 80.77 1227.76 80.77C1223.8 80.915 1219.57 82.3408 1215.07 85.0475C1210.63 87.7541 1206.88 91.1375 1203.84 95.1975C1200.79 99.2575 1199.27 103.172 1199.27 106.942V135.725L1185.71 128.475V65.0375H1177.74V56.3374H1185.71C1185.71 48.5074 1184.6 41.4991 1182.38 35.3124C1180.15 29.0774 1177.57 23.9541 1174.62 19.9424C1171.67 15.9308 1169.13 12.9582 1167.01 11.0249C1164.83 9.09158 1163.26 7.81075 1162.29 7.18241L1176.94 7.03741C1180.47 8.97075 1184 12.5232 1187.52 17.6949C1191.1 22.8183 1194.03 28.8841 1196.3 35.8924C1198.57 42.8524 1199.7 49.6674 1199.7 56.3374H1258.21V65.0375ZM1330.06 65.0375H1256.76V56.3374H1330.06V65.0375ZM1324.04 91.065C1324.04 94.2066 1322.25 97.445 1318.68 100.78C1315.15 104.115 1312.18 106.362 1309.76 107.522L1298.88 95.1975C1302.94 94.8108 1306.35 93.3608 1309.11 90.8475C1311.91 88.2858 1313.31 85.7725 1313.31 83.3075C1313.31 82.2925 1312.51 81.0841 1310.92 79.6825C1309.32 78.2325 1307.25 77.5075 1304.68 77.5075C1301.54 77.5075 1297.99 78.9575 1294.03 81.8575C1290.06 84.7575 1286.68 88.5033 1283.88 93.095C1281.12 97.6866 1279.74 102.302 1279.74 106.942V137.683L1265.82 130.432V76.7825H1279.89V82.2925C1280.28 81.9058 1281.7 81.0116 1284.17 79.61C1286.63 78.2083 1289.48 76.9516 1292.72 75.84C1296.01 74.68 1299.32 74.1 1302.65 74.1C1305.46 74.1 1308.53 74.8008 1311.86 76.2025C1315.25 77.5558 1318.12 79.5375 1320.49 82.1475C1322.86 84.7575 1324.04 87.73 1324.04 91.065ZM1353.33 48.7249C1353.14 48.9183 1352.58 49.0149 1351.67 49.0149C1350.89 49.0149 1350.22 48.9183 1349.64 48.7249C1346.16 41.9099 1343.93 37.7533 1342.97 36.2549C1341.9 34.8049 1340.55 33.8624 1338.91 33.4274C1337.31 32.9924 1335.79 32.5816 1334.34 32.1949C1332.94 31.7599 1331.8 30.7933 1330.93 29.2949C1330.74 29.0049 1330.37 27.8933 1329.84 25.9599C1329.31 23.9783 1328.27 21.6824 1326.73 19.0724V17.4049H1329.55C1335.21 19.1449 1339.22 20.7399 1341.59 22.1899C1343.96 23.5916 1345.45 24.9691 1346.08 26.3224C1346.76 27.6274 1347.7 30.3583 1348.91 34.5149C1350.12 38.6233 1351.54 42.3208 1353.19 45.6074C1353.24 46.0424 1353.26 46.4533 1353.26 46.8399C1353.31 47.1783 1353.33 47.8066 1353.33 48.7249ZM1357.61 65.0375H1328.1V56.3374H1357.61V65.0375ZM1349.35 136.668L1337.17 129.925V73.955H1349.35V136.668ZM1434.32 65.0375H1356.38V56.3374H1434.32V65.0375ZM1418.73 96.865C1418.73 85.265 1413.24 79.465 1402.27 79.465C1399.08 79.465 1395.79 80.4075 1392.41 82.2925C1389.08 84.1775 1386.08 86.7875 1383.42 90.1225C1380.81 93.4575 1378.68 97.4208 1377.04 102.012C1375.45 106.604 1374.65 111.365 1374.65 116.295V137.393L1362.76 131.157V76.6375H1375.23V85.265C1376.24 84.4916 1377.91 83.1866 1380.23 81.35C1382.6 79.5133 1385.45 77.8216 1388.79 76.275C1392.17 74.7283 1395.82 73.955 1399.73 73.955C1403.55 73.955 1407.22 74.7766 1410.75 76.42C1414.28 78.0633 1417.42 80.3591 1420.18 83.3075C1422.93 86.2558 1425.11 89.7358 1426.7 93.7475C1428.3 97.7108 1429.1 101.964 1429.1 106.507C1429.1 111.631 1427.98 116.875 1425.76 122.24C1423.54 127.557 1420.01 132.849 1415.18 138.118L1401.18 129.345C1402.05 128.185 1403.67 126.493 1406.04 124.27C1408.41 122.047 1410.49 119.799 1412.28 117.527C1414.06 115.207 1415.59 112.356 1416.84 108.972C1418.1 105.541 1418.73 101.505 1418.73 96.865ZM1500.8 65.0375H1453.24V83.7425C1454.49 83.1625 1456.45 82.1233 1459.11 80.625C1461.82 79.1266 1464.5 78.015 1467.16 77.29C1469.86 76.565 1473.1 76.2025 1476.87 76.2025C1481.66 76.2025 1486.3 77.6766 1490.79 80.625C1495.29 83.525 1497.54 87.5366 1497.54 92.66C1497.54 96.0433 1496.4 99.0158 1494.13 101.577C1491.86 104.139 1489.13 106.048 1485.94 107.305C1482.79 108.562 1480.06 109.19 1477.74 109.19L1494.56 129.635L1485.36 136.305L1459.47 105.565L1464.26 95.6325C1466.82 96.3575 1469.5 96.72 1472.31 96.72C1476.61 96.72 1480.09 95.6566 1482.75 93.53C1485.45 91.4033 1486.81 88.455 1486.81 84.685C1486.81 80.8183 1484.05 78.885 1478.54 78.885C1474.92 78.885 1471.12 80.5041 1467.16 83.7425C1463.19 86.9325 1459.86 90.7025 1457.15 95.0525C1454.45 99.4025 1453.09 102.979 1453.09 105.782V136.16L1440.62 130.577V65.0375H1431.42V56.3374H1440.19C1440.19 48.6524 1439.44 41.9099 1437.94 36.1099C1436.49 30.3099 1434.75 25.5249 1432.72 21.7549C1430.64 17.9849 1428.32 14.4324 1425.76 11.0974C1423.2 7.76241 1421.82 5.90158 1421.63 5.51491H1436.35C1437.02 6.14324 1438.16 7.49658 1439.75 9.57491C1441.35 11.6049 1443.14 14.6258 1445.12 18.6374C1447.15 22.6491 1448.96 27.9658 1450.56 34.5874C1452.15 41.1608 1452.95 48.4108 1452.95 56.3374H1500.8V65.0375ZM1579.53 65.0375H1521.03V86.86C1522.09 85.7 1523.3 84.4191 1524.65 83.0175C1526 81.6158 1527.55 80.2866 1529.29 79.03C1531.03 77.7733 1533.16 76.6858 1535.67 75.7675C1538.18 74.8491 1541.01 74.39 1544.15 74.39C1550.1 74.39 1555.34 76.0333 1559.89 79.32C1564.48 82.5583 1568.05 86.715 1570.62 91.79C1573.18 96.865 1574.46 101.867 1574.46 106.797C1574.46 111.921 1573.23 116.657 1570.76 121.007C1568.3 125.357 1565.83 128.741 1563.37 131.157C1560.9 133.574 1559.06 135.242 1557.86 136.16L1545.97 129.055C1546.64 128.088 1548.09 126.469 1550.32 124.197C1552.54 121.926 1554.5 119.678 1556.19 117.455C1557.88 115.232 1559.38 112.452 1560.68 109.117C1561.99 105.782 1562.66 102.037 1562.71 97.88C1562.71 92.805 1561.5 88.6966 1559.09 85.555C1556.67 82.365 1553.34 80.77 1549.08 80.77C1545.12 80.915 1540.89 82.3408 1536.4 85.0475C1531.95 87.7541 1528.2 91.1375 1525.16 95.1975C1522.11 99.2575 1520.59 103.172 1520.59 106.942V135.725L1507.03 128.475V65.0375H1499.06V56.3374H1507.03C1507.03 48.5074 1505.92 41.4991 1503.7 35.3124C1501.47 29.0774 1498.89 23.9541 1495.94 19.9424C1492.99 15.9308 1490.45 12.9582 1488.33 11.0249C1486.15 9.09158 1484.58 7.81075 1483.62 7.18241L1498.26 7.03741C1501.79 8.97075 1505.32 12.5232 1508.85 17.6949C1512.42 22.8183 1515.35 28.8841 1517.62 35.8924C1519.89 42.8524 1521.03 49.6674 1521.03 56.3374H1579.53V65.0375ZM1649.35 65.0375H1601.07V76.6375C1601.31 76.6375 1601.5 76.7341 1601.65 76.9275C1601.79 77.1208 1601.96 77.2175 1602.15 77.2175C1602.06 77.2175 1603.05 76.9275 1605.13 76.3475C1607.25 75.7675 1609.67 75.26 1612.38 74.825C1615.08 74.3416 1617.69 74.1 1620.21 74.1C1626.01 74.1 1630.57 74.8975 1633.91 76.4925C1637.24 78.0875 1639.64 80.335 1641.09 83.235C1642.58 86.135 1643.48 89.3975 1643.77 93.0225C1644.11 96.5991 1644.28 101.529 1644.28 107.812V136.45C1641.62 135.387 1639.22 134.347 1637.1 133.332C1634.97 132.269 1633.5 131.496 1632.68 131.012C1632.68 129.417 1632.39 128.427 1631.81 128.04C1630.21 128.958 1628.42 129.973 1626.44 131.085C1624.46 132.148 1621.87 133.091 1618.68 133.912C1615.49 134.734 1611.7 135.145 1607.3 135.145C1603.1 135.145 1598.99 134.372 1594.98 132.825C1590.96 131.278 1587.7 129.079 1585.19 126.227C1582.72 123.327 1581.49 120.065 1581.49 116.44C1581.49 113.057 1583.06 109.528 1586.2 105.855C1589.34 102.133 1593.55 99.0641 1598.82 96.6475C1604.09 94.1825 1609.84 92.95 1616.07 92.95C1619.46 92.95 1622.67 93.4575 1625.72 94.4725C1628.76 95.4391 1631.08 96.5266 1632.68 97.735V91.065C1630.79 88.5516 1628.91 86.8116 1627.02 85.845C1625.14 84.8783 1622.24 84.395 1618.32 84.395C1613.25 84.5883 1609.23 85.0233 1606.29 85.7C1603.39 86.3283 1600.24 87.3433 1596.86 88.745C1593.53 90.0983 1590.72 91.1616 1588.45 91.935V86.57C1588.79 86.28 1589.27 85.8691 1589.9 85.3375C1590.53 84.8058 1590.94 84.4191 1591.13 84.1775C1591.37 83.9358 1591.52 83.7908 1591.57 83.7425V65.0375H1576.71V56.3374H1649.35V65.0375ZM1632.68 110.93C1632.68 108.707 1630.19 106.846 1625.21 105.347C1620.23 103.849 1616.7 103.1 1614.62 103.1C1609.35 103.1 1604.55 104.212 1600.2 106.435C1595.89 108.658 1592.51 111.244 1590.05 114.192C1587.58 117.092 1586.35 119.485 1586.35 121.37C1587.02 123.4 1588.52 124.802 1590.84 125.575C1593.21 126.3 1595.72 126.662 1598.38 126.662C1603.31 126.662 1607.88 126.01 1612.09 124.705C1616.34 123.4 1620.01 121.805 1623.11 119.92C1626.2 117.987 1628.57 116.15 1630.21 114.41C1631.85 112.67 1632.68 111.51 1632.68 110.93ZM1680.6 65.0375H1672.91V56.3374H1680.6V65.0375ZM1655.8 65.0375H1647.54V56.3374H1655.8V65.0375ZM1670.52 47.5649V136.813C1670.33 136.813 1669.67 136.523 1668.56 135.943C1667.5 135.411 1666.27 134.782 1664.87 134.057C1663.46 133.332 1662.01 132.607 1660.52 131.882C1659.02 131.109 1658.2 130.722 1658.05 130.722V47.7099C1657.81 41.9583 1656.82 36.5691 1655.08 31.5424C1653.34 26.5158 1651.38 22.3349 1649.21 18.9999C1647.08 15.6649 1644.78 12.5957 1642.32 9.79241C1639.8 6.98908 1638.26 5.27324 1637.68 4.64491H1653.12C1657.23 8.75325 1660.61 13.4657 1663.27 18.7824C1665.93 24.0508 1667.79 29.1983 1668.85 34.2249C1669.96 39.2033 1670.52 43.6499 1670.52 47.5649ZM1749.98 65.0375H1701.7V76.6375C1701.94 76.6375 1702.13 76.7341 1702.28 76.9275C1702.42 77.1208 1702.59 77.2175 1702.78 77.2175C1702.69 77.2175 1703.68 76.9275 1705.76 76.3475C1707.88 75.7675 1710.3 75.26 1713.01 74.825C1715.71 74.3416 1718.32 74.1 1720.84 74.1C1726.64 74.1 1731.2 74.8975 1734.54 76.4925C1737.87 78.0875 1740.27 80.335 1741.72 83.235C1743.21 86.135 1744.11 89.3975 1744.4 93.0225C1744.74 96.5991 1744.91 101.529 1744.91 107.812V136.45C1742.25 135.387 1739.85 134.347 1737.73 133.332C1735.6 132.269 1734.13 131.496 1733.31 131.012C1733.31 129.417 1733.02 128.427 1732.44 128.04C1730.84 128.958 1729.05 129.973 1727.07 131.085C1725.09 132.148 1722.5 133.091 1719.31 133.912C1716.12 134.734 1712.33 135.145 1707.93 135.145C1703.73 135.145 1699.62 134.372 1695.61 132.825C1691.59 131.278 1688.33 129.079 1685.82 126.227C1683.35 123.327 1682.12 120.065 1682.12 116.44C1682.12 113.057 1683.69 109.528 1686.83 105.855C1689.97 102.133 1694.18 99.0641 1699.45 96.6475C1704.72 94.1825 1710.47 92.95 1716.7 92.95C1720.09 92.95 1723.3 93.4575 1726.35 94.4725C1729.39 95.4391 1731.71 96.5266 1733.31 97.735V91.065C1731.42 88.5516 1729.54 86.8116 1727.65 85.845C1725.77 84.8783 1722.87 84.395 1718.95 84.395C1713.88 84.5883 1709.86 85.0233 1706.92 85.7C1704.02 86.3283 1700.87 87.3433 1697.49 88.745C1694.16 90.0983 1691.35 91.1616 1689.08 91.935V86.57C1689.42 86.28 1689.9 85.8691 1690.53 85.3375C1691.16 84.8058 1691.57 84.4191 1691.76 84.1775C1692 83.9358 1692.15 83.7908 1692.2 83.7425V65.0375H1677.34V56.3374H1749.98V65.0375ZM1733.31 110.93C1733.31 108.707 1730.82 106.846 1725.84 105.347C1720.86 103.849 1717.33 103.1 1715.25 103.1C1709.98 103.1 1705.18 104.212 1700.83 106.435C1696.52 108.658 1693.14 111.244 1690.68 114.192C1688.21 117.092 1686.98 119.485 1686.98 121.37C1687.65 123.4 1689.15 124.802 1691.47 125.575C1693.84 126.3 1696.35 126.662 1699.01 126.662C1703.94 126.662 1708.51 126.01 1712.72 124.705C1716.97 123.4 1720.64 121.805 1723.74 119.92C1726.83 117.987 1729.2 116.15 1730.84 114.41C1732.48 112.67 1733.31 111.51 1733.31 110.93ZM1879.76 65.0375H1796.6V56.3374H1879.76V65.0375ZM1873.96 105.13C1873.96 110.398 1872.36 115.377 1869.17 120.065C1865.98 124.705 1862.02 128.378 1857.28 131.085C1852.59 133.792 1848.19 135.145 1844.09 135.145C1840.36 135.145 1836.35 133.622 1832.05 130.577C1827.8 127.532 1822.55 123.062 1816.32 117.165V178.645L1804.72 172.555V76.6375H1816.03V94.3275C1816.9 93.4091 1818.35 91.8625 1820.38 89.6875C1822.46 87.5125 1824.82 85.2408 1827.48 82.8725C1830.14 80.4558 1833.07 78.3291 1836.26 76.4925C1839.45 74.6075 1842.44 73.665 1845.25 73.665C1847.9 73.665 1850.88 74.5833 1854.16 76.42C1857.5 78.2083 1860.66 80.6008 1863.66 83.5975C1866.71 86.5941 1869.17 90.0016 1871.06 93.82C1872.99 97.59 1873.96 101.36 1873.96 105.13ZM1866.78 96.72C1866.78 95.56 1866.29 93.9408 1865.33 91.8625C1864.41 89.7841 1862.98 87.8991 1861.05 86.2075C1859.12 84.4675 1856.72 83.5975 1853.87 83.5975C1850.68 83.5975 1847.11 84.6608 1843.14 86.7875C1839.18 88.9141 1835.41 91.5966 1831.83 94.835C1828.26 98.025 1825.31 101.312 1822.99 104.695C1820.72 108.03 1819.58 110.761 1819.58 112.887C1819.58 114.386 1820.43 115.932 1822.12 117.527C1823.81 119.074 1825.98 120.403 1828.64 121.515C1831.3 122.578 1833.94 123.11 1836.55 123.11C1840.9 123.11 1844.96 122.192 1848.73 120.355C1852.54 118.47 1855.76 116.15 1858.37 113.395C1861.03 110.64 1863.08 107.764 1864.53 104.767C1866.03 101.722 1866.78 99.04 1866.78 96.72ZM1950.95 65.0375H1877.65V56.3374H1950.95V65.0375ZM1944.93 91.065C1944.93 94.2066 1943.14 97.445 1939.57 100.78C1936.04 104.115 1933.07 106.362 1930.65 107.522L1919.78 95.1975C1923.84 94.8108 1927.24 93.3608 1930 90.8475C1932.8 88.2858 1934.2 85.7725 1934.2 83.3075C1934.2 82.2925 1933.41 81.0841 1931.81 79.6825C1930.22 78.2325 1928.14 77.5075 1925.58 77.5075C1922.43 77.5075 1918.88 78.9575 1914.92 81.8575C1910.95 84.7575 1907.57 88.5033 1904.77 93.095C1902.01 97.6866 1900.64 102.302 1900.64 106.942V137.683L1886.72 130.432V76.7825H1900.78V82.2925C1901.17 81.9058 1902.59 81.0116 1905.06 79.61C1907.52 78.2083 1910.37 76.9516 1913.61 75.84C1916.9 74.68 1920.21 74.1 1923.55 74.1C1926.35 74.1 1929.42 74.8008 1932.75 76.2025C1936.14 77.5558 1939.01 79.5375 1941.38 82.1475C1943.75 84.7575 1944.93 87.73 1944.93 91.065ZM2020.26 65.0375H1971.98V76.6375C1972.22 76.6375 1972.41 76.7341 1972.56 76.9275C1972.7 77.1208 1972.87 77.2175 1973.06 77.2175C1972.97 77.2175 1973.96 76.9275 1976.04 76.3475C1978.16 75.7675 1980.58 75.26 1983.29 74.825C1985.99 74.3416 1988.6 74.1 1991.12 74.1C1996.92 74.1 2001.48 74.8975 2004.82 76.4925C2008.15 78.0875 2010.55 80.335 2012 83.235C2013.49 86.135 2014.39 89.3975 2014.68 93.0225C2015.02 96.5991 2015.19 101.529 2015.19 107.812V136.45C2012.53 135.387 2010.13 134.347 2008.01 133.332C2005.88 132.269 2004.41 131.496 2003.59 131.012C2003.59 129.417 2003.3 128.427 2002.72 128.04C2001.12 128.958 1999.33 129.973 1997.35 131.085C1995.37 132.148 1992.78 133.091 1989.59 133.912C1986.4 134.734 1982.61 135.145 1978.21 135.145C1974.01 135.145 1969.9 134.372 1965.89 132.825C1961.87 131.278 1958.61 129.079 1956.1 126.227C1953.63 123.327 1952.4 120.065 1952.4 116.44C1952.4 113.057 1953.97 109.528 1957.11 105.855C1960.25 102.133 1964.46 99.0641 1969.73 96.6475C1975 94.1825 1980.75 92.95 1986.98 92.95C1990.37 92.95 1993.58 93.4575 1996.63 94.4725C1999.67 95.4391 2001.99 96.5266 2003.59 97.735V91.065C2001.7 88.5516 1999.82 86.8116 1997.93 85.845C1996.05 84.8783 1993.15 84.395 1989.23 84.395C1984.16 84.5883 1980.14 85.0233 1977.2 85.7C1974.3 86.3283 1971.15 87.3433 1967.77 88.745C1964.44 90.0983 1961.63 91.1616 1959.36 91.935V86.57C1959.7 86.28 1960.18 85.8691 1960.81 85.3375C1961.44 84.8058 1961.85 84.4191 1962.04 84.1775C1962.28 83.9358 1962.43 83.7908 1962.48 83.7425V65.0375H1947.62V56.3374H2020.26V65.0375ZM2003.59 110.93C2003.59 108.707 2001.1 106.846 1996.12 105.347C1991.14 103.849 1987.61 103.1 1985.53 103.1C1980.26 103.1 1975.46 104.212 1971.11 106.435C1966.8 108.658 1963.42 111.244 1960.96 114.192C1958.49 117.092 1957.26 119.485 1957.26 121.37C1957.93 123.4 1959.43 124.802 1961.75 125.575C1964.12 126.3 1966.63 126.662 1969.29 126.662C1974.22 126.662 1978.79 126.01 1983 124.705C1987.25 123.4 1990.92 121.805 1994.02 119.92C1997.11 117.987 1999.48 116.15 2001.12 114.41C2002.76 112.67 2003.59 111.51 2003.59 110.93ZM2098.92 65.0375H2043.82V92.08C2044.79 90.8716 2046.46 89.035 2048.83 86.57C2051.24 84.105 2054.34 81.64 2058.11 79.175C2061.92 76.71 2065.72 75.4775 2069.49 75.4775C2073.4 75.4775 2077 76.2991 2080.29 77.9425C2083.58 79.5375 2086.38 81.6641 2088.7 84.3225C2091.07 86.9325 2092.86 89.7841 2094.07 92.8775C2095.32 95.9708 2095.95 98.9191 2095.95 101.722C2095.95 105.879 2094.86 109.987 2092.69 114.047C2090.51 118.059 2087.71 121.636 2084.28 124.777C2080.89 127.871 2077.34 130.36 2073.62 132.245C2069.95 134.082 2066.78 135 2064.12 135C2060.79 135 2057.77 134.009 2055.06 132.027C2052.4 129.997 2048.46 126.324 2043.24 121.007V135.87L2030.63 130.432V65.0375H2018.74V56.3374H2030.63C2030.63 50.1024 2029.66 44.0366 2027.73 38.1399C2025.84 32.1949 2023.6 26.9749 2020.99 22.4799C2018.38 17.9849 2015.69 13.9974 2012.94 10.5174C2010.13 7.03741 2007.96 4.62074 2006.41 3.26741H2022.29C2024.18 4.86241 2026.11 6.74741 2028.09 8.92241C2030.07 11.0491 2032.32 14.3116 2034.83 18.7099C2037.35 23.1083 2039.47 28.4491 2041.21 34.7324C2042.95 41.0158 2043.82 48.2174 2043.82 56.3374H2098.92V65.0375ZM2087.9 109.19C2087.9 107.208 2087.23 104.912 2085.87 102.302C2084.57 99.6441 2082.73 97.0825 2080.36 94.6175C2077.99 92.1525 2075.09 90.0741 2071.66 88.3825C2068.28 86.6908 2064.68 85.845 2060.86 85.845C2058.54 85.845 2056.17 86.5458 2053.76 87.9475C2051.39 89.3491 2049.41 90.9683 2047.81 92.805C2046.22 94.5933 2045.42 95.9466 2045.42 96.865C2045.42 100.2 2046.87 104.332 2049.77 109.262C2052.72 114.144 2056.44 118.397 2060.93 122.022C2065.43 125.647 2069.83 127.46 2074.13 127.46C2076.59 127.46 2078.86 126.542 2080.94 124.705C2083.07 122.868 2084.76 120.524 2086.02 117.672C2087.27 114.821 2087.9 111.993 2087.9 109.19ZM2177.95 65.0375H2119.44V86.86C2120.5 85.7 2121.71 84.4191 2123.07 83.0175C2124.42 81.6158 2125.97 80.2866 2127.71 79.03C2129.45 77.7733 2131.57 76.6858 2134.09 75.7675C2136.6 74.8491 2139.43 74.39 2142.57 74.39C2148.51 74.39 2153.76 76.0333 2158.3 79.32C2162.89 82.5583 2166.47 86.715 2169.03 91.79C2171.59 96.865 2172.87 101.867 2172.87 106.797C2172.87 111.921 2171.64 116.657 2169.18 121.007C2166.71 125.357 2164.25 128.741 2161.78 131.157C2159.32 133.574 2157.48 135.242 2156.27 136.16L2144.38 129.055C2145.06 128.088 2146.51 126.469 2148.73 124.197C2150.95 121.926 2152.91 119.678 2154.6 117.455C2156.29 115.232 2157.79 112.452 2159.1 109.117C2160.4 105.782 2161.08 102.037 2161.13 97.88C2161.13 92.805 2159.92 88.6966 2157.5 85.555C2155.09 82.365 2151.75 80.77 2147.5 80.77C2143.53 80.915 2139.31 82.3408 2134.81 85.0475C2130.36 87.7541 2126.62 91.1375 2123.57 95.1975C2120.53 99.2575 2119.01 103.172 2119.01 106.942V135.725L2105.45 128.475V65.0375H2097.47V56.3374H2105.45C2105.45 48.5074 2104.34 41.4991 2102.11 35.3124C2099.89 29.0774 2097.3 23.9541 2094.36 19.9424C2091.41 15.9308 2088.87 12.9582 2086.74 11.0249C2084.57 9.09158 2083 7.81075 2082.03 7.18241L2096.68 7.03741C2100.2 8.97075 2103.73 12.5232 2107.26 17.6949C2110.84 22.8183 2113.76 28.8841 2116.03 35.8924C2118.3 42.8524 2119.44 49.6674 2119.44 56.3374H2177.95V65.0375ZM2247.77 65.0375H2199.48V76.6375C2199.72 76.6375 2199.92 76.7341 2200.06 76.9275C2200.21 77.1208 2200.37 77.2175 2200.57 77.2175C2200.47 77.2175 2201.46 76.9275 2203.54 76.3475C2205.67 75.7675 2208.08 75.26 2210.79 74.825C2213.5 74.3416 2216.11 74.1 2218.62 74.1C2224.42 74.1 2228.99 74.8975 2232.32 76.4925C2235.66 78.0875 2238.05 80.335 2239.5 83.235C2241 86.135 2241.89 89.3975 2242.18 93.0225C2242.52 96.5991 2242.69 101.529 2242.69 107.812V136.45C2240.03 135.387 2237.64 134.347 2235.51 133.332C2233.39 132.269 2231.91 131.496 2231.09 131.012C2231.09 129.417 2230.8 128.427 2230.22 128.04C2228.63 128.958 2226.84 129.973 2224.86 131.085C2222.87 132.148 2220.29 133.091 2217.1 133.912C2213.91 134.734 2210.11 135.145 2205.72 135.145C2201.51 135.145 2197.4 134.372 2193.39 132.825C2189.38 131.278 2186.12 129.079 2183.6 126.227C2181.14 123.327 2179.91 120.065 2179.91 116.44C2179.91 113.057 2181.48 109.528 2184.62 105.855C2187.76 102.133 2191.96 99.0641 2197.23 96.6475C2202.5 94.1825 2208.25 92.95 2214.49 92.95C2217.87 92.95 2221.09 93.4575 2224.13 94.4725C2227.18 95.4391 2229.5 96.5266 2231.09 97.735V91.065C2229.21 88.5516 2227.32 86.8116 2225.44 85.845C2223.55 84.8783 2220.65 84.395 2216.74 84.395C2211.66 84.5883 2207.65 85.0233 2204.7 85.7C2201.8 86.3283 2198.66 87.3433 2195.28 88.745C2191.94 90.0983 2189.14 91.1616 2186.87 91.935V86.57C2187.2 86.28 2187.69 85.8691 2188.32 85.3375C2188.94 84.8058 2189.35 84.4191 2189.55 84.1775C2189.79 83.9358 2189.93 83.7908 2189.98 83.7425V65.0375H2175.12V56.3374H2247.77V65.0375ZM2231.09 110.93C2231.09 108.707 2228.6 106.846 2223.62 105.347C2218.64 103.849 2215.12 103.1 2213.04 103.1C2207.77 103.1 2202.96 104.212 2198.61 106.435C2194.31 108.658 2190.93 111.244 2188.46 114.192C2186 117.092 2184.76 119.485 2184.76 121.37C2185.44 123.4 2186.94 124.802 2189.26 125.575C2191.63 126.3 2194.14 126.662 2196.8 126.662C2201.73 126.662 2206.3 126.01 2210.5 124.705C2214.75 123.4 2218.43 121.805 2221.52 119.92C2224.61 117.987 2226.98 116.15 2228.63 114.41C2230.27 112.67 2231.09 111.51 2231.09 110.93ZM2324.18 65.0375H2246.24V56.3374H2324.18V65.0375ZM2308.59 96.865C2308.59 85.265 2303.11 79.465 2292.14 79.465C2288.95 79.465 2285.66 80.4075 2282.28 82.2925C2278.94 84.1775 2275.94 86.7875 2273.29 90.1225C2270.68 93.4575 2268.55 97.4208 2266.91 102.012C2265.31 106.604 2264.51 111.365 2264.51 116.295V137.393L2252.62 131.157V76.6375H2265.09V85.265C2266.11 84.4916 2267.78 83.1866 2270.1 81.35C2272.46 79.5133 2275.32 77.8216 2278.65 76.275C2282.03 74.7283 2285.68 73.955 2289.6 73.955C2293.42 73.955 2297.09 74.7766 2300.62 76.42C2304.15 78.0633 2307.29 80.3591 2310.04 83.3075C2312.8 86.2558 2314.97 89.7358 2316.57 93.7475C2318.16 97.7108 2318.96 101.964 2318.96 106.507C2318.96 111.631 2317.85 116.875 2315.63 122.24C2313.4 127.557 2309.87 132.849 2305.04 138.118L2291.05 129.345C2291.92 128.185 2293.54 126.493 2295.91 124.27C2298.27 122.047 2300.35 119.799 2302.14 117.527C2303.93 115.207 2305.45 112.356 2306.71 108.972C2307.96 105.541 2308.59 101.505 2308.59 96.865ZM2406.54 65.0375H2397.04L2396.9 135.87L2383.7 130.215V119.847C2379.84 124.826 2376.11 128.596 2372.54 131.157C2369.01 133.719 2365.05 135 2360.65 135C2356.39 135 2351.63 133.308 2346.37 129.925C2341.1 126.542 2336.6 122.216 2332.88 116.947C2329.21 111.679 2327.37 106.411 2327.37 101.142C2327.47 99.1608 2328.14 96.72 2329.4 93.82C2330.71 90.8716 2332.59 87.8991 2335.06 84.9025C2337.57 81.8575 2340.59 79.3441 2344.12 77.3625C2347.65 75.3808 2351.59 74.39 2355.94 74.39C2360.96 74.39 2365.29 75.9125 2368.91 78.9575C2372.54 81.9541 2377.47 86.8358 2383.7 93.6025V65.0375H2321.64V56.3374H2383.7C2383.7 51.2624 2383.56 47.0816 2383.27 43.7949C2383.03 40.4599 2382.3 36.8349 2381.09 32.9199C2379.93 28.9566 2378 24.4858 2375.29 19.5074C2372.59 14.5291 2368.94 8.97075 2364.35 2.83241C2364.15 2.83241 2364.06 2.44574 2364.06 1.67241C2364.06 1.09241 2364.2 0.705741 2364.49 0.512407H2378.34C2382.93 5.58741 2387.18 12.3299 2391.1 20.7399C2395.06 29.1499 2397.04 41.0158 2397.04 56.3374H2406.54V65.0375ZM2380.22 98.025C2380.22 94.98 2378.48 92.0075 2375 89.1075C2371.52 86.1591 2367.39 84.685 2362.61 84.685C2360.82 84.685 2357.87 85.6516 2353.76 87.585C2349.65 89.5183 2345.91 92.37 2342.52 96.14C2339.19 99.91 2337.52 104.405 2337.52 109.625C2337.52 114.603 2338.92 118.663 2341.73 121.805C2344.53 124.947 2347.72 126.517 2351.3 126.517C2355.45 126.517 2359.78 124.777 2364.27 121.297C2368.82 117.769 2372.61 113.709 2375.66 109.117C2378.7 104.526 2380.22 100.828 2380.22 98.025ZM2485.06 65.0375H2426.55V86.86C2427.61 85.7 2428.82 84.4191 2430.18 83.0175C2431.53 81.6158 2433.08 80.2866 2434.82 79.03C2436.56 77.7733 2438.68 76.6858 2441.2 75.7675C2443.71 74.8491 2446.54 74.39 2449.68 74.39C2455.62 74.39 2460.87 76.0333 2465.41 79.32C2470 82.5583 2473.58 86.715 2476.14 91.79C2478.7 96.865 2479.98 101.867 2479.98 106.797C2479.98 111.921 2478.75 116.657 2476.29 121.007C2473.82 125.357 2471.36 128.741 2468.89 131.157C2466.43 133.574 2464.59 135.242 2463.38 136.16L2451.49 129.055C2452.17 128.088 2453.62 126.469 2455.84 124.197C2458.06 121.926 2460.02 119.678 2461.71 117.455C2463.4 115.232 2464.9 112.452 2466.21 109.117C2467.51 105.782 2468.19 102.037 2468.24 97.88C2468.24 92.805 2467.03 88.6966 2464.61 85.555C2462.2 82.365 2458.86 80.77 2454.61 80.77C2450.64 80.915 2446.42 82.3408 2441.92 85.0475C2437.47 87.7541 2433.73 91.1375 2430.68 95.1975C2427.64 99.2575 2426.12 103.172 2426.12 106.942V135.725L2412.56 128.475V65.0375H2404.58V56.3374H2412.56C2412.56 48.5074 2411.45 41.4991 2409.22 35.3124C2407 29.0774 2404.41 23.9541 2401.47 19.9424C2398.52 15.9308 2395.98 12.9582 2393.85 11.0249C2391.68 9.09158 2390.11 7.81075 2389.14 7.18241L2403.79 7.03741C2407.31 8.97075 2410.84 12.5232 2414.37 17.6949C2417.95 22.8183 2420.87 28.8841 2423.14 35.8924C2425.41 42.8524 2426.55 49.6674 2426.55 56.3374H2485.06V65.0375ZM2554.88 65.0375H2506.59V76.6375C2506.83 76.6375 2507.03 76.7341 2507.17 76.9275C2507.32 77.1208 2507.49 77.2175 2507.68 77.2175C2507.58 77.2175 2508.57 76.9275 2510.65 76.3475C2512.78 75.7675 2515.19 75.26 2517.9 74.825C2520.61 74.3416 2523.22 74.1 2525.73 74.1C2531.53 74.1 2536.1 74.8975 2539.43 76.4925C2542.77 78.0875 2545.16 80.335 2546.61 83.235C2548.11 86.135 2549 89.3975 2549.29 93.0225C2549.63 96.5991 2549.8 101.529 2549.8 107.812V136.45C2547.14 135.387 2544.75 134.347 2542.62 133.332C2540.5 132.269 2539.02 131.496 2538.2 131.012C2538.2 129.417 2537.91 128.427 2537.33 128.04C2535.74 128.958 2533.95 129.973 2531.97 131.085C2529.98 132.148 2527.4 133.091 2524.21 133.912C2521.02 134.734 2517.22 135.145 2512.83 135.145C2508.62 135.145 2504.51 134.372 2500.5 132.825C2496.49 131.278 2493.23 129.079 2490.71 126.227C2488.25 123.327 2487.02 120.065 2487.02 116.44C2487.02 113.057 2488.59 109.528 2491.73 105.855C2494.87 102.133 2499.08 99.0641 2504.34 96.6475C2509.61 94.1825 2515.36 92.95 2521.6 92.95C2524.98 92.95 2528.2 93.4575 2531.24 94.4725C2534.29 95.4391 2536.61 96.5266 2538.2 97.735V91.065C2536.32 88.5516 2534.43 86.8116 2532.55 85.845C2530.66 84.8783 2527.76 84.395 2523.85 84.395C2518.77 84.5883 2514.76 85.0233 2511.81 85.7C2508.91 86.3283 2505.77 87.3433 2502.39 88.745C2499.05 90.0983 2496.25 91.1616 2493.98 91.935V86.57C2494.31 86.28 2494.8 85.8691 2495.43 85.3375C2496.05 84.8058 2496.47 84.4191 2496.66 84.1775C2496.9 83.9358 2497.05 83.7908 2497.09 83.7425V65.0375H2482.23V56.3374H2554.88V65.0375ZM2538.2 110.93C2538.2 108.707 2535.71 106.846 2530.73 105.347C2525.76 103.849 2522.23 103.1 2520.15 103.1C2514.88 103.1 2510.07 104.212 2505.72 106.435C2501.42 108.658 2498.04 111.244 2495.57 114.192C2493.11 117.092 2491.87 119.485 2491.87 121.37C2492.55 123.4 2494.05 124.802 2496.37 125.575C2498.74 126.3 2501.25 126.662 2503.91 126.662C2508.84 126.662 2513.41 126.01 2517.61 124.705C2521.86 123.4 2525.54 121.805 2528.63 119.92C2531.72 117.987 2534.09 116.15 2535.74 114.41C2537.38 112.67 2538.2 111.51 2538.2 110.93ZM2621.65 65.0375H2574.09V83.7425C2575.34 83.1625 2577.3 82.1233 2579.96 80.625C2582.67 79.1266 2585.35 78.015 2588.01 77.29C2590.71 76.565 2593.95 76.2025 2597.72 76.2025C2602.51 76.2025 2607.15 77.6766 2611.64 80.625C2616.14 83.525 2618.39 87.5366 2618.39 92.66C2618.39 96.0433 2617.25 99.0158 2614.98 101.577C2612.71 104.139 2609.98 106.048 2606.79 107.305C2603.64 108.562 2600.91 109.19 2598.59 109.19L2615.41 129.635L2606.21 136.305L2580.32 105.565L2585.11 95.6325C2587.67 96.3575 2590.35 96.72 2593.16 96.72C2597.46 96.72 2600.94 95.6566 2603.6 93.53C2606.3 91.4033 2607.66 88.455 2607.66 84.685C2607.66 80.8183 2604.9 78.885 2599.39 78.885C2595.77 78.885 2591.97 80.5041 2588.01 83.7425C2584.04 86.9325 2580.71 90.7025 2578 95.0525C2575.3 99.4025 2573.94 102.979 2573.94 105.782V136.16L2561.47 130.577V65.0375H2552.27V56.3374H2561.04C2561.04 48.6524 2560.29 41.9099 2558.79 36.1099C2557.34 30.3099 2555.6 25.5249 2553.57 21.7549C2551.49 17.9849 2549.17 14.4324 2546.61 11.0974C2544.05 7.76241 2542.67 5.90158 2542.48 5.51491H2557.2C2557.87 6.14324 2559.01 7.49658 2560.6 9.57491C2562.2 11.6049 2563.99 14.6258 2565.97 18.6374C2568 22.6491 2569.81 27.9658 2571.41 34.5874C2573 41.1608 2573.8 48.4108 2573.8 56.3374H2621.65V65.0375Z" fill="black"/>
</svg>
