<svg width="2735" height="179" viewBox="0 0 2735 179" fill="none" xmlns="http://www.w3.org/2000/svg">
<path d="M73.1317 65.0375H24.8467V76.6375C25.0884 76.6375 25.2817 76.7341 25.4267 76.9275C25.5717 77.1208 25.7409 77.2175 25.9342 77.2175C25.8375 77.2175 26.8284 76.9516 28.9067 76.42C30.985 75.84 33.3775 75.3083 36.0842 74.825C38.7909 74.3416 41.4251 74.1 43.9867 74.1C49.7867 74.1 54.3542 74.8975 57.6892 76.4925C61.0242 78.0875 63.4167 80.335 64.8667 83.235C66.3651 86.135 67.2592 89.3975 67.5492 93.0225C67.8876 96.5991 68.0567 101.529 68.0567 107.812V135.725C64.3351 134.275 61.6767 133.212 60.0817 132.535C58.5351 131.858 57.3509 131.351 56.5292 131.012C56.5292 129.466 56.2151 128.475 55.5867 128.04C53.9917 128.958 52.2034 129.973 50.2217 131.085C48.2401 132.148 45.6542 133.091 42.4642 133.912C39.2742 134.734 35.4801 135.145 31.0817 135.145C26.8767 135.145 22.7684 134.372 18.7567 132.825C14.745 131.278 11.4825 129.079 8.9692 126.227C6.5042 123.327 5.2717 120.065 5.2717 116.44C5.2717 113.057 6.84253 109.528 9.9842 105.855C13.1259 102.133 17.3309 99.0641 22.5992 96.6475C27.8675 94.1825 33.6192 92.95 39.8542 92.95C43.2376 92.95 46.4517 93.4575 49.4967 94.4725C52.5901 95.4391 54.9342 96.5266 56.5292 97.735V91.065C54.4992 88.455 52.5659 86.6908 50.7292 85.7725C48.8926 84.8541 46.0167 84.395 42.1017 84.395C37.0267 84.5883 33.015 85.0233 30.0667 85.7C27.1667 86.3283 24.025 87.3433 20.6417 88.745C17.3067 90.0983 14.5034 91.1616 12.2317 91.935V86.57C12.57 86.28 13.0534 85.8691 13.6817 85.3375C14.31 84.8058 14.7209 84.4191 14.9142 84.1775C15.1559 83.9358 15.3009 83.7908 15.3492 83.7425V65.0375H0.486693V56.3374H73.1317V65.0375ZM56.5292 110.93C56.5292 108.707 54.0159 106.846 48.9892 105.347C44.0109 103.849 40.4826 103.1 38.4042 103.1C33.1359 103.1 28.3509 104.212 24.0492 106.435C19.7475 108.61 16.3642 111.172 13.8992 114.12C11.4342 117.068 10.2017 119.485 10.2017 121.37C10.7817 123.352 12.2559 124.729 14.6242 125.502C16.9925 126.276 19.5059 126.662 22.1642 126.662C27.0942 126.662 31.6375 126.01 35.7942 124.705C39.9992 123.4 43.6484 121.805 46.7417 119.92C49.8834 118.035 52.3001 116.222 53.9917 114.482C55.6834 112.742 56.5292 111.558 56.5292 110.93ZM149.544 65.0375H141.641V92.515C138.838 90.8716 134.826 89.4458 129.606 88.2375C124.386 87.0291 119.94 86.425 116.266 86.425C113.221 86.425 109.572 86.7875 105.319 87.5125C101.114 88.1891 97.3197 89.4216 93.9364 91.21C90.6014 92.95 88.9339 95.27 88.9339 98.17C88.9339 99.3783 89.4172 100.659 90.3839 102.012C91.3989 103.317 92.9455 103.97 95.0239 103.97C97.2955 103.97 100.582 103.197 104.884 101.65C109.234 100.055 112.424 98.9675 114.454 98.3875C116.532 97.7591 119.553 97.445 123.516 97.445C127.238 97.445 130.766 98.1216 134.101 99.475C137.485 100.78 140.167 102.689 142.149 105.202C144.179 107.716 145.194 110.616 145.194 113.902C145.194 117.817 143.768 121.37 140.916 124.56C138.065 127.75 134.633 130.263 130.621 132.1C126.658 133.888 122.864 134.903 119.239 135.145C122.719 138.625 126.03 140.365 129.171 140.365C130.186 140.365 131.274 140.22 132.434 139.93L139.756 151.893C139.37 152.231 138.427 152.642 136.929 153.125C135.479 153.608 133.352 153.85 130.549 153.85C126.537 153.85 123.492 152.714 121.414 150.443C119.336 148.171 117.185 145.102 114.961 141.235C112.786 137.368 110.998 135.435 109.596 135.435C105.971 135.29 102.371 134.927 98.7939 134.347C95.2655 133.719 91.9789 132.462 88.9339 130.577C85.8889 128.692 84.3664 126.107 84.3664 122.82C84.3664 120.645 85.0914 119.098 86.5414 118.18C88.0397 117.213 89.7314 116.73 91.6164 116.73C93.9364 116.73 95.7972 117.068 97.1989 117.745C98.6005 118.422 100.316 119.461 102.346 120.862C104.425 122.216 106.479 123.255 108.509 123.98C110.587 124.705 113.366 125.067 116.846 125.067C119.311 125.067 122.574 124.632 126.634 123.762C130.742 122.892 134.367 121.612 137.509 119.92C140.651 118.18 142.221 116.077 142.221 113.612C142.221 112.259 141.738 111.172 140.771 110.35C139.805 109.48 138.693 108.9 137.436 108.61C136.18 108.272 134.875 108.102 133.521 108.102C131.733 108.102 129.824 108.368 127.794 108.9C125.812 109.432 121.946 110.471 116.194 112.017C110.442 113.564 106.914 114.337 105.609 114.337C102.274 114.337 98.8422 113.395 95.3139 111.51C91.8339 109.577 88.9097 106.894 86.5414 103.462C84.2214 100.031 83.0372 96.285 82.9889 92.225C82.9889 87.8266 84.6322 84.2741 87.9189 81.5675C91.2055 78.8125 95.1447 76.855 99.7364 75.695C104.328 74.535 108.654 73.955 112.714 73.955C115.421 73.955 118.828 74.39 122.936 75.26C127.093 76.0816 130.259 76.7825 132.434 77.3625V65.0375H74.7238V56.3374H149.544V65.0375ZM222.621 65.0375H174.336V76.6375C174.578 76.6375 174.771 76.7341 174.916 76.9275C175.061 77.1208 175.23 77.2175 175.424 77.2175C175.327 77.2175 176.318 76.9516 178.396 76.42C180.474 75.84 182.867 75.3083 185.574 74.825C188.28 74.3416 190.914 74.1 193.476 74.1C199.276 74.1 203.844 74.8975 207.179 76.4925C210.514 78.0875 212.906 80.335 214.356 83.235C215.854 86.135 216.749 89.3975 217.039 93.0225C217.377 96.5991 217.546 101.529 217.546 107.812V135.725C213.824 134.275 211.166 133.212 209.571 132.535C208.024 131.858 206.84 131.351 206.019 131.012C206.019 129.466 205.704 128.475 205.076 128.04C203.481 128.958 201.693 129.973 199.711 131.085C197.729 132.148 195.144 133.091 191.954 133.912C188.764 134.734 184.969 135.145 180.571 135.145C176.366 135.145 172.258 134.372 168.246 132.825C164.234 131.278 160.972 129.079 158.459 126.227C155.994 123.327 154.761 120.065 154.761 116.44C154.761 113.057 156.332 109.528 159.474 105.855C162.615 102.133 166.82 99.0641 172.089 96.6475C177.357 94.1825 183.109 92.95 189.344 92.95C192.727 92.95 195.941 93.4575 198.986 94.4725C202.079 95.4391 204.424 96.5266 206.019 97.735V91.065C203.989 88.455 202.055 86.6908 200.219 85.7725C198.382 84.8541 195.506 84.395 191.591 84.395C186.516 84.5883 182.504 85.0233 179.556 85.7C176.656 86.3283 173.514 87.3433 170.131 88.745C166.796 90.0983 163.993 91.1616 161.721 91.935V86.57C162.059 86.28 162.543 85.8691 163.171 85.3375C163.799 84.8058 164.21 84.4191 164.404 84.1775C164.645 83.9358 164.79 83.7908 164.839 83.7425V65.0375H149.976V56.3374H222.621V65.0375ZM206.019 110.93C206.019 108.707 203.505 106.846 198.479 105.347C193.5 103.849 189.972 103.1 187.894 103.1C182.625 103.1 177.84 104.212 173.539 106.435C169.237 108.61 165.854 111.172 163.389 114.12C160.924 117.068 159.691 119.485 159.691 121.37C160.271 123.352 161.745 124.729 164.114 125.502C166.482 126.276 168.995 126.662 171.654 126.662C176.584 126.662 181.127 126.01 185.284 124.705C189.489 123.4 193.138 121.805 196.231 119.92C199.373 118.035 201.789 116.222 203.481 114.482C205.173 112.742 206.019 111.558 206.019 110.93ZM307.661 65.0375H224.503V56.3374H307.661V65.0375ZM301.861 105.13C301.861 110.398 300.266 115.377 297.076 120.065C293.886 124.705 289.922 128.378 285.186 131.085C280.497 133.792 276.099 135.145 271.991 135.145C268.269 135.145 264.257 133.622 259.956 130.577C255.702 127.532 250.458 123.062 244.223 117.165V178.645L232.623 172.555V76.6375H243.933V94.3275C244.803 93.4091 246.253 91.8625 248.283 89.6875C250.362 87.5125 252.73 85.2408 255.388 82.8725C258.047 80.4558 260.971 78.3291 264.161 76.4925C267.351 74.6075 270.347 73.665 273.151 73.665C275.809 73.665 278.782 74.5833 282.068 76.42C285.403 78.2083 288.569 80.6008 291.566 83.5975C294.611 86.5941 297.076 90.0016 298.961 93.82C300.894 97.59 301.861 101.36 301.861 105.13ZM294.683 96.72C294.683 95.56 294.2 93.9408 293.233 91.8625C292.315 89.7841 290.889 87.8991 288.956 86.2075C287.022 84.4675 284.63 83.5975 281.778 83.5975C278.588 83.5975 275.012 84.6608 271.048 86.7875C267.085 88.9141 263.315 91.5966 259.738 94.835C256.162 98.025 253.213 101.312 250.893 104.695C248.622 108.03 247.486 110.761 247.486 112.887C247.486 114.386 248.332 115.932 250.023 117.527C251.715 119.074 253.89 120.403 256.548 121.515C259.207 122.578 261.841 123.11 264.451 123.11C268.801 123.11 272.861 122.192 276.631 120.355C280.449 118.47 283.663 116.15 286.273 113.395C288.932 110.64 290.986 107.764 292.436 104.767C293.934 101.722 294.683 99.04 294.683 96.72ZM409.662 65.0375H359.782V56.3374H409.662V65.0375ZM404.587 91.935C404.201 92.4183 402.968 93.2641 400.89 94.4725C398.812 95.6808 397.12 96.6716 395.815 97.445H366.452L375.08 91.935H404.587ZM533.849 65.0375H485.564V76.6375C485.806 76.6375 485.999 76.7341 486.144 76.9275C486.289 77.1208 486.458 77.2175 486.652 77.2175C486.555 77.2175 487.546 76.9516 489.624 76.42C491.703 75.84 494.095 75.3083 496.802 74.825C499.508 74.3416 502.143 74.1 504.704 74.1C510.504 74.1 515.072 74.8975 518.407 76.4925C521.742 78.0875 524.134 80.335 525.584 83.235C527.083 86.135 527.977 89.3975 528.267 93.0225C528.605 96.5991 528.774 101.529 528.774 107.812V135.725C525.053 134.275 522.394 133.212 520.799 132.535C519.253 131.858 518.068 131.351 517.247 131.012C517.247 129.466 516.933 128.475 516.304 128.04C514.709 128.958 512.921 129.973 510.939 131.085C508.958 132.148 506.372 133.091 503.182 133.912C499.992 134.734 496.198 135.145 491.799 135.145C487.594 135.145 483.486 134.372 479.474 132.825C475.463 131.278 472.2 129.079 469.687 126.227C467.222 123.327 465.989 120.065 465.989 116.44C465.989 113.057 467.56 109.528 470.702 105.855C473.843 102.133 478.048 99.0641 483.317 96.6475C488.585 94.1825 494.337 92.95 500.572 92.95C503.955 92.95 507.169 93.4575 510.214 94.4725C513.308 95.4391 515.652 96.5266 517.247 97.735V91.065C515.217 88.455 513.283 86.6908 511.447 85.7725C509.61 84.8541 506.734 84.395 502.819 84.395C497.744 84.5883 493.733 85.0233 490.784 85.7C487.884 86.3283 484.743 87.3433 481.359 88.745C478.024 90.0983 475.221 91.1616 472.949 91.935V86.57C473.288 86.28 473.771 85.8691 474.399 85.3375C475.028 84.8058 475.438 84.4191 475.632 84.1775C475.873 83.9358 476.018 83.7908 476.067 83.7425V65.0375H461.204V56.3374H533.849V65.0375ZM517.247 110.93C517.247 108.707 514.733 106.846 509.707 105.347C504.728 103.849 501.2 103.1 499.122 103.1C493.853 103.1 489.068 104.212 484.767 106.435C480.465 108.61 477.082 111.172 474.617 114.12C472.152 117.068 470.919 119.485 470.919 121.37C471.499 123.352 472.973 124.729 475.342 125.502C477.71 126.276 480.223 126.662 482.882 126.662C487.812 126.662 492.355 126.01 496.512 124.705C500.717 123.4 504.366 121.805 507.459 119.92C510.601 118.035 513.018 116.222 514.709 114.482C516.401 112.742 517.247 111.558 517.247 110.93ZM607.144 65.0375H558.859V76.6375C559.101 76.6375 559.294 76.7341 559.439 76.9275C559.584 77.1208 559.753 77.2175 559.946 77.2175C559.85 77.2175 560.841 76.9275 562.919 76.3475C565.046 75.7675 567.462 75.26 570.169 74.825C572.876 74.3416 575.486 74.1 577.999 74.1C583.799 74.1 588.366 74.8975 591.701 76.4925C595.036 78.0875 597.429 80.335 598.879 83.235C600.377 86.135 601.271 89.3975 601.561 93.0225C601.9 96.5991 602.069 101.529 602.069 107.812V136.45C599.411 135.387 597.018 134.347 594.891 133.332C592.765 132.269 591.291 131.496 590.469 131.012C590.469 129.417 590.179 128.427 589.599 128.04C588.004 128.958 586.216 129.973 584.234 131.085C582.252 132.148 579.666 133.091 576.476 133.912C573.286 134.734 569.492 135.145 565.094 135.145C560.889 135.145 556.781 134.372 552.769 132.825C548.757 131.278 545.495 129.079 542.981 126.227C540.516 123.327 539.284 120.065 539.284 116.44C539.284 113.057 540.855 109.528 543.996 105.855C547.138 102.133 551.343 99.0641 556.611 96.6475C561.88 94.1825 567.631 92.95 573.866 92.95C577.25 92.95 580.464 93.4575 583.509 94.4725C586.554 95.4391 588.874 96.5266 590.469 97.735V91.065C588.584 88.5516 586.699 86.8116 584.814 85.845C582.929 84.8783 580.029 84.395 576.114 84.395C571.039 84.5883 567.027 85.0233 564.079 85.7C561.179 86.3283 558.037 87.3433 554.654 88.745C551.319 90.0983 548.516 91.1616 546.244 91.935V86.57C546.582 86.28 547.066 85.8691 547.694 85.3375C548.322 84.8058 548.733 84.4191 548.926 84.1775C549.168 83.9358 549.313 83.7908 549.361 83.7425V65.0375H534.499V56.3374H607.144V65.0375ZM590.469 110.93C590.469 108.707 587.98 106.846 583.001 105.347C578.023 103.849 574.495 103.1 572.416 103.1C567.148 103.1 562.339 104.212 557.989 106.435C553.687 108.658 550.304 111.244 547.839 114.192C545.374 117.092 544.141 119.485 544.141 121.37C544.818 123.4 546.316 124.802 548.636 125.575C551.005 126.3 553.518 126.662 556.176 126.662C561.106 126.662 565.674 126.01 569.879 124.705C574.132 123.4 577.806 121.805 580.899 119.92C583.992 117.987 586.361 116.15 588.004 114.41C589.647 112.67 590.469 111.51 590.469 110.93ZM691.604 65.0375H608.446V56.3374H691.604V65.0375ZM685.804 105.13C685.804 110.398 684.209 115.377 681.019 120.065C677.829 124.705 673.865 128.378 669.129 131.085C664.44 133.792 660.042 135.145 655.934 135.145C652.212 135.145 648.2 133.622 643.899 130.577C639.645 127.532 634.401 123.062 628.166 117.165V178.645L616.566 172.555V76.6375H627.876V94.3275C628.746 93.4091 630.196 91.8625 632.226 89.6875C634.304 87.5125 636.673 85.2408 639.331 82.8725C641.989 80.4558 644.914 78.3291 648.104 76.4925C651.294 74.6075 654.29 73.665 657.094 73.665C659.752 73.665 662.724 74.5833 666.011 76.42C669.346 78.2083 672.512 80.6008 675.509 83.5975C678.554 86.5941 681.019 90.0016 682.904 93.82C684.837 97.59 685.804 101.36 685.804 105.13ZM678.626 96.72C678.626 95.56 678.143 93.9408 677.176 91.8625C676.258 89.7841 674.832 87.8991 672.899 86.2075C670.965 84.4675 668.573 83.5975 665.721 83.5975C662.531 83.5975 658.954 84.6608 654.991 86.7875C651.028 88.9141 647.258 91.5966 643.681 94.835C640.104 98.025 637.156 101.312 634.836 104.695C632.564 108.03 631.429 110.761 631.429 112.887C631.429 114.386 632.274 115.932 633.966 117.527C635.658 119.074 637.833 120.403 640.491 121.515C643.149 122.578 645.784 123.11 648.394 123.11C652.744 123.11 656.804 122.192 660.574 120.355C664.392 118.47 667.606 116.15 670.216 113.395C672.874 110.64 674.929 107.764 676.379 104.767C677.877 101.722 678.626 99.04 678.626 96.72ZM770.553 65.0375H754.241V84.975C754.241 85.41 754.917 86.28 756.271 87.585C757.672 88.8416 758.905 90.1225 759.968 91.4275C761.08 92.7325 762.095 94.69 763.013 97.3C763.98 99.8616 764.463 103.027 764.463 106.797C764.463 111.921 763.158 116.682 760.548 121.08C757.938 125.478 754.337 128.934 749.746 131.447C745.154 133.912 740.103 135.145 734.593 135.145C730.968 135.145 726.957 134.227 722.558 132.39C718.16 130.505 713.979 127.919 710.016 124.632C706.101 121.346 702.935 117.648 700.518 113.54C698.102 109.383 696.893 105.106 696.893 100.707C696.893 97.5175 698.053 93.8441 700.373 89.6875C702.693 85.5308 706.028 81.9541 710.378 78.9575C714.777 75.9125 720.045 74.39 726.183 74.39C729.567 74.39 734.569 75.2841 741.191 77.0725C741.481 77.0725 741.626 76.8791 741.626 76.4925V65.0375H691.891V56.3374H770.553V65.0375ZM753.806 97.155C753.806 93.4816 752.863 90.5091 750.978 88.2375C749.142 85.9658 747.063 84.395 744.743 83.525C742.472 82.6066 740.587 82.1475 739.088 82.1475C736.768 82.1475 733.82 82.8241 730.243 84.1775C726.715 85.4825 723.211 87.4883 719.731 90.195C716.251 92.9016 713.351 96.3091 711.031 100.417C708.759 104.477 707.623 109.069 707.623 114.192C707.623 116.319 708.348 118.397 709.798 120.427C711.248 122.457 713.133 124.125 715.453 125.43C717.773 126.687 720.166 127.315 722.631 127.315C725.096 127.315 728.165 126.542 731.838 124.995C735.512 123.448 738.992 121.346 742.278 118.687C745.613 115.981 748.368 112.791 750.543 109.117C752.718 105.444 753.806 101.457 753.806 97.155ZM849.648 65.0375H833.335V84.975C833.335 85.41 834.012 86.28 835.365 87.585C836.767 88.8416 838 90.1225 839.063 91.4275C840.175 92.7325 841.19 94.69 842.108 97.3C843.075 99.8616 843.558 103.027 843.558 106.797C843.558 111.921 842.253 116.682 839.643 121.08C837.033 125.478 833.432 128.934 828.84 131.447C824.249 133.912 819.198 135.145 813.688 135.145C810.063 135.145 806.051 134.227 801.653 132.39C797.255 130.505 793.074 127.919 789.11 124.632C785.195 121.346 782.03 117.648 779.613 113.54C777.196 109.383 775.988 105.106 775.988 100.707C775.988 97.5175 777.148 93.8441 779.468 89.6875C781.788 85.5308 785.123 81.9541 789.473 78.9575C793.871 75.9125 799.14 74.39 805.278 74.39C808.661 74.39 813.664 75.2841 820.285 77.0725C820.575 77.0725 820.72 76.8791 820.72 76.4925V65.0375H770.985V56.3374H849.648V65.0375ZM832.9 97.155C832.9 93.4816 831.958 90.5091 830.073 88.2375C828.236 85.9658 826.158 84.395 823.838 83.525C821.566 82.6066 819.681 82.1475 818.183 82.1475C815.863 82.1475 812.915 82.8241 809.338 84.1775C805.81 85.4825 802.305 87.4883 798.825 90.195C795.345 92.9016 792.445 96.3091 790.125 100.417C787.854 104.477 786.718 109.069 786.718 114.192C786.718 116.319 787.443 118.397 788.893 120.427C790.343 122.457 792.228 124.125 794.548 125.43C796.868 126.687 799.26 127.315 801.725 127.315C804.19 127.315 807.26 126.542 810.933 124.995C814.606 123.448 818.086 121.346 821.373 118.687C824.708 115.981 827.463 112.791 829.638 109.117C831.813 105.444 832.9 101.457 832.9 97.155ZM923.958 65.0375H850.66V56.3374H923.958V65.0375ZM917.94 91.065C917.94 94.2066 916.152 97.445 912.575 100.78C909.047 104.115 906.074 106.362 903.658 107.522L892.783 95.1975C896.843 94.8108 900.25 93.3608 903.005 90.8475C905.808 88.2858 907.21 85.7725 907.21 83.3075C907.21 82.2925 906.413 81.0841 904.818 79.6825C903.223 78.2325 901.144 77.5075 898.583 77.5075C895.441 77.5075 891.888 78.9575 887.925 81.8575C883.962 84.7575 880.578 88.5033 877.775 93.095C875.02 97.6866 873.643 102.302 873.643 106.942V137.683L859.723 130.432V76.7825H873.788V82.2925C874.174 81.9058 875.6 81.0116 878.065 79.61C880.53 78.2083 883.382 76.9516 886.62 75.84C889.907 74.68 893.218 74.1 896.553 74.1C899.356 74.1 902.425 74.8008 905.76 76.2025C909.143 77.5558 912.019 79.5375 914.388 82.1475C916.756 84.7575 917.94 87.73 917.94 91.065ZM989.857 65.0375H953.172V123.4C953.172 125.092 953.752 126.735 954.912 128.33C956.12 129.925 957.425 130.722 958.827 130.722C966.029 130.722 969.63 123.279 969.63 108.392L984.202 116.73C981.834 121.998 978.596 126.397 974.487 129.925C970.427 133.405 965.062 135.145 958.392 135.145C955.057 135.097 951.988 134.227 949.185 132.535C946.43 130.795 944.23 128.596 942.587 125.937C940.944 123.231 940.122 120.548 940.122 117.89V65.0375H924.97V56.3374H940.122V31.9774L953.172 41.0399V56.3374H989.857V65.0375ZM1071.49 65.0375H1012.98V86.86C1014.05 85.7 1015.25 84.4191 1016.61 83.0175C1017.96 81.6158 1019.51 80.2866 1021.25 79.03C1022.99 77.7733 1025.11 76.6858 1027.63 75.7675C1030.14 74.8491 1032.97 74.39 1036.11 74.39C1042.05 74.39 1047.3 76.0333 1051.84 79.32C1056.43 82.5583 1060.01 86.715 1062.57 91.79C1065.13 96.865 1066.41 101.867 1066.41 106.797C1066.41 111.921 1065.18 116.657 1062.72 121.007C1060.25 125.357 1057.79 128.741 1055.32 131.157C1052.86 133.574 1051.02 135.242 1049.81 136.16L1037.92 129.055C1038.6 128.088 1040.05 126.469 1042.27 124.197C1044.5 121.926 1046.45 119.678 1048.14 117.455C1049.84 115.232 1051.33 112.452 1052.64 109.117C1053.94 105.782 1054.62 102.037 1054.67 97.88C1054.67 92.805 1053.46 88.6966 1051.04 85.555C1048.63 82.365 1045.29 80.77 1041.04 80.77C1037.08 80.915 1032.85 82.3408 1028.35 85.0475C1023.91 87.7541 1020.16 91.1375 1017.11 95.1975C1014.07 99.2575 1012.55 103.172 1012.55 106.942V135.725L998.989 128.475V65.0375H991.014V56.3374H998.989C998.989 48.5074 997.878 41.4991 995.654 35.3124C993.431 29.0774 990.845 23.9541 987.897 19.9424C984.948 15.9308 982.411 12.9582 980.284 11.0249C978.109 9.09158 976.538 7.81075 975.572 7.18241L990.217 7.03741C993.745 8.97075 997.273 12.5232 1000.8 17.6949C1004.38 22.8183 1007.3 28.8841 1009.57 35.8924C1011.85 42.8524 1012.98 49.6674 1012.98 56.3374H1071.49V65.0375ZM1098.24 48.7249C1098.05 48.9183 1097.49 49.0149 1096.57 49.0149C1095.8 49.0149 1095.12 48.9183 1094.54 48.7249C1091.06 41.9099 1088.84 37.7533 1087.87 36.2549C1086.81 34.8049 1085.45 33.8624 1083.81 33.4274C1082.22 32.9924 1080.69 32.5816 1079.24 32.1949C1077.84 31.7599 1076.71 30.7933 1075.84 29.2949C1075.64 29.0049 1075.28 27.8933 1074.75 25.9599C1074.22 23.9783 1073.18 21.6824 1071.63 19.0724V17.4049H1074.46C1080.11 19.1449 1084.13 20.7399 1086.49 22.1899C1088.86 23.5916 1090.36 24.9691 1090.99 26.3224C1091.67 27.6274 1092.61 30.3583 1093.82 34.5149C1095.02 38.6233 1096.45 42.3208 1098.09 45.6074C1098.14 46.0424 1098.17 46.4533 1098.17 46.8399C1098.21 47.1783 1098.24 47.8066 1098.24 48.7249ZM1102.52 65.0375H1073.01V56.3374H1102.52V65.0375ZM1094.25 136.668L1082.07 129.925V73.955H1094.25V136.668ZM1229.89 65.0375H1221.99V92.515C1219.19 90.8716 1215.18 89.4458 1209.96 88.2375C1204.74 87.0291 1200.29 86.425 1196.62 86.425C1193.57 86.425 1189.92 86.7875 1185.67 87.5125C1181.46 88.1891 1177.67 89.4216 1174.29 91.21C1170.95 92.95 1169.28 95.27 1169.28 98.17C1169.28 99.3783 1169.77 100.659 1170.73 102.012C1171.75 103.317 1173.29 103.97 1175.37 103.97C1177.64 103.97 1180.93 103.197 1185.23 101.65C1189.58 100.055 1192.77 98.9675 1194.8 98.3875C1196.88 97.7591 1199.9 97.445 1203.87 97.445C1207.59 97.445 1211.12 98.1216 1214.45 99.475C1217.83 100.78 1220.52 102.689 1222.5 105.202C1224.53 107.716 1225.54 110.616 1225.54 113.902C1225.54 117.817 1224.12 121.37 1221.27 124.56C1218.41 127.75 1214.98 130.263 1210.97 132.1C1207.01 133.888 1203.21 134.903 1199.59 135.145C1203.07 138.625 1206.38 140.365 1209.52 140.365C1210.54 140.365 1211.62 140.22 1212.78 139.93L1220.11 151.893C1219.72 152.231 1218.78 152.642 1217.28 153.125C1215.83 153.608 1213.7 153.85 1210.9 153.85C1206.89 153.85 1203.84 152.714 1201.76 150.443C1199.68 148.171 1197.53 145.102 1195.31 141.235C1193.14 137.368 1191.35 135.435 1189.95 135.435C1186.32 135.29 1182.72 134.927 1179.14 134.347C1175.61 133.719 1172.33 132.462 1169.28 130.577C1166.24 128.692 1164.72 126.107 1164.72 122.82C1164.72 120.645 1165.44 119.098 1166.89 118.18C1168.39 117.213 1170.08 116.73 1171.97 116.73C1174.29 116.73 1176.15 117.068 1177.55 117.745C1178.95 118.422 1180.67 119.461 1182.7 120.862C1184.77 122.216 1186.83 123.255 1188.86 123.98C1190.94 124.705 1193.72 125.067 1197.2 125.067C1199.66 125.067 1202.92 124.632 1206.98 123.762C1211.09 122.892 1214.72 121.612 1217.86 119.92C1221 118.18 1222.57 116.077 1222.57 113.612C1222.57 112.259 1222.09 111.172 1221.12 110.35C1220.15 109.48 1219.04 108.9 1217.79 108.61C1216.53 108.272 1215.22 108.102 1213.87 108.102C1212.08 108.102 1210.17 108.368 1208.14 108.9C1206.16 109.432 1202.29 110.471 1196.54 112.017C1190.79 113.564 1187.26 114.337 1185.96 114.337C1182.62 114.337 1179.19 113.395 1175.66 111.51C1172.18 109.577 1169.26 106.894 1166.89 103.462C1164.57 100.031 1163.39 96.285 1163.34 92.225C1163.34 87.8266 1164.98 84.2741 1168.27 81.5675C1171.55 78.8125 1175.49 76.855 1180.09 75.695C1184.68 74.535 1189 73.955 1193.06 73.955C1195.77 73.955 1199.18 74.39 1203.29 75.26C1207.44 76.0816 1210.61 76.7825 1212.78 77.3625V65.0375H1155.07V56.3374H1229.89V65.0375ZM1311.74 65.0375H1253.24V86.86C1254.3 85.7 1255.51 84.4191 1256.86 83.0175C1258.21 81.6158 1259.76 80.2866 1261.5 79.03C1263.24 77.7733 1265.37 76.6858 1267.88 75.7675C1270.39 74.8491 1273.22 74.39 1276.36 74.39C1282.31 74.39 1287.55 76.0333 1292.1 79.32C1296.69 82.5583 1300.26 86.715 1302.83 91.79C1305.39 96.865 1306.67 101.867 1306.67 106.797C1306.67 111.921 1305.44 116.657 1302.97 121.007C1300.51 125.357 1298.04 128.741 1295.58 131.157C1293.11 133.574 1291.27 135.242 1290.07 136.16L1278.18 129.055C1278.85 128.088 1280.3 126.469 1282.53 124.197C1284.75 121.926 1286.71 119.678 1288.4 117.455C1290.09 115.232 1291.59 112.452 1292.89 109.117C1294.2 105.782 1294.87 102.037 1294.92 97.88C1294.92 92.805 1293.71 88.6966 1291.3 85.555C1288.88 82.365 1285.55 80.77 1281.29 80.77C1277.33 80.915 1273.1 82.3408 1268.61 85.0475C1264.16 87.7541 1260.41 91.1375 1257.37 95.1975C1254.32 99.2575 1252.8 103.172 1252.8 106.942V135.725L1239.24 128.475V65.0375H1231.27V56.3374H1239.24C1239.24 48.5074 1238.13 41.4991 1235.91 35.3124C1233.68 29.0774 1231.1 23.9541 1228.15 19.9424C1225.2 15.9308 1222.66 12.9582 1220.54 11.0249C1218.36 9.09158 1216.79 7.81075 1215.83 7.18241L1230.47 7.03741C1234 8.97075 1237.53 12.5232 1241.06 17.6949C1244.63 22.8183 1247.56 28.8841 1249.83 35.8924C1252.1 42.8524 1253.24 49.6674 1253.24 56.3374H1311.74V65.0375ZM1386.56 65.0375H1313.26V56.3374H1386.56V65.0375ZM1380.54 91.065C1380.54 94.2066 1378.75 97.445 1375.18 100.78C1371.65 104.115 1368.68 106.362 1366.26 107.522L1355.39 95.1975C1359.45 94.8108 1362.85 93.3608 1365.61 90.8475C1368.41 88.2858 1369.81 85.7725 1369.81 83.3075C1369.81 82.2925 1369.02 81.0841 1367.42 79.6825C1365.83 78.2325 1363.75 77.5075 1361.19 77.5075C1358.04 77.5075 1354.49 78.9575 1350.53 81.8575C1346.56 84.7575 1343.18 88.5033 1340.38 93.095C1337.62 97.6866 1336.25 102.302 1336.25 106.942V137.683L1322.33 130.432V76.7825H1336.39V82.2925C1336.78 81.9058 1338.2 81.0116 1340.67 79.61C1343.13 78.2083 1345.98 76.9516 1349.22 75.84C1352.51 74.68 1355.82 74.1 1359.16 74.1C1361.96 74.1 1365.03 74.8008 1368.36 76.2025C1371.75 77.5558 1374.62 79.5375 1376.99 82.1475C1379.36 84.7575 1380.54 87.73 1380.54 91.065ZM1412.8 48.7249C1412.61 48.9183 1412.05 49.0149 1411.13 49.0149C1410.36 49.0149 1409.68 48.9183 1409.1 48.7249C1405.62 41.9099 1403.4 37.7533 1402.43 36.2549C1401.37 34.8049 1400.02 33.8624 1398.37 33.4274C1396.78 32.9924 1395.26 32.5816 1393.81 32.1949C1392.41 31.7599 1391.27 30.7933 1390.4 29.2949C1390.21 29.0049 1389.84 27.8933 1389.31 25.9599C1388.78 23.9783 1387.74 21.6824 1386.19 19.0724V17.4049H1389.02C1394.68 19.1449 1398.69 20.7399 1401.06 22.1899C1403.43 23.5916 1404.92 24.9691 1405.55 26.3224C1406.23 27.6274 1407.17 30.3583 1408.38 34.5149C1409.59 38.6233 1411.01 42.3208 1412.66 45.6074C1412.71 46.0424 1412.73 46.4533 1412.73 46.8399C1412.78 47.1783 1412.8 47.8066 1412.8 48.7249ZM1417.08 65.0375H1387.57V56.3374H1417.08V65.0375ZM1408.81 136.668L1396.63 129.925V73.955H1408.81V136.668ZM1496.75 65.0375H1418.82V56.3374H1496.75V65.0375ZM1481.17 96.865C1481.17 85.265 1475.68 79.465 1464.71 79.465C1461.52 79.465 1458.23 80.4075 1454.85 82.2925C1451.51 84.1775 1448.52 86.7875 1445.86 90.1225C1443.25 93.4575 1441.12 97.4208 1439.48 102.012C1437.88 106.604 1437.09 111.365 1437.09 116.295V137.393L1425.2 131.157V76.6375H1437.67V85.265C1438.68 84.4916 1440.35 83.1866 1442.67 81.35C1445.04 79.5133 1447.89 77.8216 1451.22 76.275C1454.61 74.7283 1458.26 73.955 1462.17 73.955C1465.99 73.955 1469.66 74.7766 1473.19 76.42C1476.72 78.0633 1479.86 80.3591 1482.62 83.3075C1485.37 86.2558 1487.55 89.7358 1489.14 93.7475C1490.74 97.7108 1491.53 101.964 1491.53 106.507C1491.53 111.631 1490.42 116.875 1488.2 122.24C1485.98 127.557 1482.45 132.849 1477.61 138.118L1463.62 129.345C1464.49 128.185 1466.11 126.493 1468.48 124.27C1470.85 122.047 1472.93 119.799 1474.71 117.527C1476.5 115.207 1478.03 112.356 1479.28 108.972C1480.54 105.541 1481.17 101.505 1481.17 96.865ZM1566.21 65.0375H1518.65V83.7425C1519.9 83.1625 1521.86 82.1233 1524.52 80.625C1527.23 79.1266 1529.91 78.015 1532.57 77.29C1535.27 76.565 1538.51 76.2025 1542.28 76.2025C1547.07 76.2025 1551.71 77.6766 1556.2 80.625C1560.7 83.525 1562.94 87.5366 1562.94 92.66C1562.94 96.0433 1561.81 99.0158 1559.54 101.577C1557.26 104.139 1554.53 106.048 1551.34 107.305C1548.2 108.562 1545.47 109.19 1543.15 109.19L1559.97 129.635L1550.76 136.305L1524.88 105.565L1529.67 95.6325C1532.23 96.3575 1534.91 96.72 1537.71 96.72C1542.02 96.72 1545.5 95.6566 1548.15 93.53C1550.86 91.4033 1552.21 88.455 1552.21 84.685C1552.21 80.8183 1549.46 78.885 1543.95 78.885C1540.32 78.885 1536.53 80.5041 1532.57 83.7425C1528.6 86.9325 1525.27 90.7025 1522.56 95.0525C1519.85 99.4025 1518.5 102.979 1518.5 105.782V136.16L1506.03 130.577V65.0375H1496.82V56.3374H1505.6C1505.6 48.6524 1504.85 41.9099 1503.35 36.1099C1501.9 30.3099 1500.16 25.5249 1498.13 21.7549C1496.05 17.9849 1493.73 14.4324 1491.17 11.0974C1488.61 7.76241 1487.23 5.90158 1487.04 5.51491H1501.75C1502.43 6.14324 1503.57 7.49658 1505.16 9.57491C1506.76 11.6049 1508.54 14.6258 1510.53 18.6374C1512.56 22.6491 1514.37 27.9658 1515.96 34.5874C1517.56 41.1608 1518.36 48.4108 1518.36 56.3374H1566.21V65.0375ZM1647.91 65.0375H1589.4V86.86C1590.47 85.7 1591.68 84.4191 1593.03 83.0175C1594.38 81.6158 1595.93 80.2866 1597.67 79.03C1599.41 77.7733 1601.54 76.6858 1604.05 75.7675C1606.56 74.8491 1609.39 74.39 1612.53 74.39C1618.48 74.39 1623.72 76.0333 1628.26 79.32C1632.86 82.5583 1636.43 86.715 1638.99 91.79C1641.56 96.865 1642.84 101.867 1642.84 106.797C1642.84 111.921 1641.6 116.657 1639.14 121.007C1636.67 125.357 1634.21 128.741 1631.74 131.157C1629.28 133.574 1627.44 135.242 1626.23 136.16L1614.34 129.055C1615.02 128.088 1616.47 126.469 1618.69 124.197C1620.92 121.926 1622.87 119.678 1624.57 117.455C1626.26 115.232 1627.76 112.452 1629.06 109.117C1630.37 105.782 1631.04 102.037 1631.09 97.88C1631.09 92.805 1629.88 88.6966 1627.47 85.555C1625.05 82.365 1621.71 80.77 1617.46 80.77C1613.5 80.915 1609.27 82.3408 1604.77 85.0475C1600.33 87.7541 1596.58 91.1375 1593.54 95.1975C1590.49 99.2575 1588.97 103.172 1588.97 106.942V135.725L1575.41 128.475V65.0375H1567.44V56.3374H1575.41C1575.41 48.5074 1574.3 41.4991 1572.08 35.3124C1569.85 29.0774 1567.27 23.9541 1564.32 19.9424C1561.37 15.9308 1558.83 12.9582 1556.71 11.0249C1554.53 9.09158 1552.96 7.81075 1551.99 7.18241L1566.64 7.03741C1570.17 8.97075 1573.7 12.5232 1577.22 17.6949C1580.8 22.8183 1583.72 28.8841 1586 35.8924C1588.27 42.8524 1589.4 49.6674 1589.4 56.3374H1647.91V65.0375ZM1720.7 65.0375H1672.41V76.6375C1672.65 76.6375 1672.85 76.7341 1672.99 76.9275C1673.14 77.1208 1673.31 77.2175 1673.5 77.2175C1673.4 77.2175 1674.39 76.9275 1676.47 76.3475C1678.6 75.7675 1681.02 75.26 1683.72 74.825C1686.43 74.3416 1689.04 74.1 1691.55 74.1C1697.35 74.1 1701.92 74.8975 1705.26 76.4925C1708.59 78.0875 1710.98 80.335 1712.43 83.235C1713.93 86.135 1714.83 89.3975 1715.12 93.0225C1715.45 96.5991 1715.62 101.529 1715.62 107.812V136.45C1712.96 135.387 1710.57 134.347 1708.45 133.332C1706.32 132.269 1704.84 131.496 1704.02 131.012C1704.02 129.417 1703.73 128.427 1703.15 128.04C1701.56 128.958 1699.77 129.973 1697.79 131.085C1695.81 132.148 1693.22 133.091 1690.03 133.912C1686.84 134.734 1683.05 135.145 1678.65 135.145C1674.44 135.145 1670.33 134.372 1666.32 132.825C1662.31 131.278 1659.05 129.079 1656.54 126.227C1654.07 123.327 1652.84 120.065 1652.84 116.44C1652.84 113.057 1654.41 109.528 1657.55 105.855C1660.69 102.133 1664.9 99.0641 1670.17 96.6475C1675.43 94.1825 1681.19 92.95 1687.42 92.95C1690.8 92.95 1694.02 93.4575 1697.06 94.4725C1700.11 95.4391 1702.43 96.5266 1704.02 97.735V91.065C1702.14 88.5516 1700.25 86.8116 1698.37 85.845C1696.48 84.8783 1693.58 84.395 1689.67 84.395C1684.59 84.5883 1680.58 85.0233 1677.63 85.7C1674.73 86.3283 1671.59 87.3433 1668.21 88.745C1664.87 90.0983 1662.07 91.1616 1659.8 91.935V86.57C1660.14 86.28 1660.62 85.8691 1661.25 85.3375C1661.88 84.8058 1662.29 84.4191 1662.48 84.1775C1662.72 83.9358 1662.87 83.7908 1662.92 83.7425V65.0375H1648.05V56.3374H1720.7V65.0375ZM1704.02 110.93C1704.02 108.707 1701.53 106.846 1696.56 105.347C1691.58 103.849 1688.05 103.1 1685.97 103.1C1680.7 103.1 1675.89 104.212 1671.54 106.435C1667.24 108.658 1663.86 111.244 1661.39 114.192C1658.93 117.092 1657.7 119.485 1657.7 121.37C1658.37 123.4 1659.87 124.802 1662.19 125.575C1664.56 126.3 1667.07 126.662 1669.73 126.662C1674.66 126.662 1679.23 126.01 1683.43 124.705C1687.69 123.4 1691.36 121.805 1694.45 119.92C1697.55 117.987 1699.91 116.15 1701.56 114.41C1703.2 112.67 1704.02 111.51 1704.02 110.93ZM1754.92 65.0375H1747.23V56.3374H1754.92V65.0375ZM1730.12 65.0375H1721.86V56.3374H1730.12V65.0375ZM1744.84 47.5649V136.813C1744.64 136.813 1743.99 136.523 1742.88 135.943C1741.82 135.411 1740.58 134.782 1739.18 134.057C1737.78 133.332 1736.33 132.607 1734.83 131.882C1733.33 131.109 1732.51 130.722 1732.37 130.722V47.7099C1732.13 41.9583 1731.14 36.5691 1729.4 31.5424C1727.66 26.5158 1725.7 22.3349 1723.52 18.9999C1721.4 15.6649 1719.1 12.5957 1716.64 9.79241C1714.12 6.98908 1712.58 5.27324 1712 4.64491H1727.44C1731.55 8.75325 1734.93 13.4657 1737.59 18.7824C1740.25 24.0508 1742.11 29.1983 1743.17 34.2249C1744.28 39.2033 1744.84 43.6499 1744.84 47.5649ZM1827.27 65.0375H1778.98V76.6375C1779.22 76.6375 1779.42 76.7341 1779.56 76.9275C1779.71 77.1208 1779.88 77.2175 1780.07 77.2175C1779.97 77.2175 1780.96 76.9275 1783.04 76.3475C1785.17 75.7675 1787.59 75.26 1790.29 74.825C1793 74.3416 1795.61 74.1 1798.12 74.1C1803.92 74.1 1808.49 74.8975 1811.83 76.4925C1815.16 78.0875 1817.55 80.335 1819 83.235C1820.5 86.135 1821.4 89.3975 1821.69 93.0225C1822.02 96.5991 1822.19 101.529 1822.19 107.812V136.45C1819.53 135.387 1817.14 134.347 1815.02 133.332C1812.89 132.269 1811.41 131.496 1810.59 131.012C1810.59 129.417 1810.3 128.427 1809.72 128.04C1808.13 128.958 1806.34 129.973 1804.36 131.085C1802.38 132.148 1799.79 133.091 1796.6 133.912C1793.41 134.734 1789.62 135.145 1785.22 135.145C1781.01 135.145 1776.9 134.372 1772.89 132.825C1768.88 131.278 1765.62 129.079 1763.1 126.227C1760.64 123.327 1759.41 120.065 1759.41 116.44C1759.41 113.057 1760.98 109.528 1764.12 105.855C1767.26 102.133 1771.47 99.0641 1776.73 96.6475C1782 94.1825 1787.75 92.95 1793.99 92.95C1797.37 92.95 1800.59 93.4575 1803.63 94.4725C1806.68 95.4391 1809 96.5266 1810.59 97.735V91.065C1808.71 88.5516 1806.82 86.8116 1804.94 85.845C1803.05 84.8783 1800.15 84.395 1796.24 84.395C1791.16 84.5883 1787.15 85.0233 1784.2 85.7C1781.3 86.3283 1778.16 87.3433 1774.78 88.745C1771.44 90.0983 1768.64 91.1616 1766.37 91.935V86.57C1766.71 86.28 1767.19 85.8691 1767.82 85.3375C1768.45 84.8058 1768.86 84.4191 1769.05 84.1775C1769.29 83.9358 1769.44 83.7908 1769.48 83.7425V65.0375H1754.62V56.3374H1827.27V65.0375ZM1810.59 110.93C1810.59 108.707 1808.1 106.846 1803.13 105.347C1798.15 103.849 1794.62 103.1 1792.54 103.1C1787.27 103.1 1782.46 104.212 1778.11 106.435C1773.81 108.658 1770.43 111.244 1767.96 114.192C1765.5 117.092 1764.26 119.485 1764.26 121.37C1764.94 123.4 1766.44 124.802 1768.76 125.575C1771.13 126.3 1773.64 126.662 1776.3 126.662C1781.23 126.662 1785.8 126.01 1790 124.705C1794.26 123.4 1797.93 121.805 1801.02 119.92C1804.12 117.987 1806.48 116.15 1808.13 114.41C1809.77 112.67 1810.59 111.51 1810.59 110.93ZM1962.98 65.0375H1879.82V56.3374H1962.98V65.0375ZM1957.18 105.13C1957.18 110.398 1955.59 115.377 1952.4 120.065C1949.21 124.705 1945.24 128.378 1940.51 131.085C1935.82 133.792 1931.42 135.145 1927.31 135.145C1923.59 135.145 1919.58 133.622 1915.28 130.577C1911.02 127.532 1905.78 123.062 1899.54 117.165V178.645L1887.94 172.555V76.6375H1899.25V94.3275C1900.12 93.4091 1901.57 91.8625 1903.6 89.6875C1905.68 87.5125 1908.05 85.2408 1910.71 82.8725C1913.37 80.4558 1916.29 78.3291 1919.48 76.4925C1922.67 74.6075 1925.67 73.665 1928.47 73.665C1931.13 73.665 1934.1 74.5833 1937.39 76.42C1940.72 78.2083 1943.89 80.6008 1946.89 83.5975C1949.93 86.5941 1952.4 90.0016 1954.28 93.82C1956.22 97.59 1957.18 101.36 1957.18 105.13ZM1950 96.72C1950 95.56 1949.52 93.9408 1948.55 91.8625C1947.64 89.7841 1946.21 87.8991 1944.28 86.2075C1942.34 84.4675 1939.95 83.5975 1937.1 83.5975C1933.91 83.5975 1930.33 84.6608 1926.37 86.7875C1922.41 88.9141 1918.64 91.5966 1915.06 94.835C1911.48 98.025 1908.53 101.312 1906.21 104.695C1903.94 108.03 1902.81 110.761 1902.81 112.887C1902.81 114.386 1903.65 115.932 1905.34 117.527C1907.04 119.074 1909.21 120.403 1911.87 121.515C1914.53 122.578 1917.16 123.11 1919.77 123.11C1924.12 123.11 1928.18 122.192 1931.95 120.355C1935.77 118.47 1938.98 116.15 1941.59 113.395C1944.25 110.64 1946.31 107.764 1947.76 104.767C1949.26 101.722 1950 99.04 1950 96.72ZM2037.15 65.0375H1963.85V56.3374H2037.15V65.0375ZM2031.13 91.065C2031.13 94.2066 2029.34 97.445 2025.76 100.78C2022.24 104.115 2019.26 106.362 2016.85 107.522L2005.97 95.1975C2010.03 94.8108 2013.44 93.3608 2016.19 90.8475C2019 88.2858 2020.4 85.7725 2020.4 83.3075C2020.4 82.2925 2019.6 81.0841 2018.01 79.6825C2016.41 78.2325 2014.33 77.5075 2011.77 77.5075C2008.63 77.5075 2005.08 78.9575 2001.11 81.8575C1997.15 84.7575 1993.77 88.5033 1990.96 93.095C1988.21 97.6866 1986.83 102.302 1986.83 106.942V137.683L1972.91 130.432V76.7825H1986.98V82.2925C1987.36 81.9058 1988.79 81.0116 1991.25 79.61C1993.72 78.2083 1996.57 76.9516 1999.81 75.84C2003.1 74.68 2006.41 74.1 2009.74 74.1C2012.54 74.1 2015.61 74.8008 2018.95 76.2025C2022.33 77.5558 2025.21 79.5375 2027.58 82.1475C2029.94 84.7575 2031.13 87.73 2031.13 91.065ZM2109.43 65.0375H2061.14V76.6375C2061.38 76.6375 2061.58 76.7341 2061.72 76.9275C2061.87 77.1208 2062.04 77.2175 2062.23 77.2175C2062.13 77.2175 2063.12 76.9275 2065.2 76.3475C2067.33 75.7675 2069.74 75.26 2072.45 74.825C2075.16 74.3416 2077.77 74.1 2080.28 74.1C2086.08 74.1 2090.65 74.8975 2093.98 76.4925C2097.32 78.0875 2099.71 80.335 2101.16 83.235C2102.66 86.135 2103.55 89.3975 2103.84 93.0225C2104.18 96.5991 2104.35 101.529 2104.35 107.812V136.45C2101.69 135.387 2099.3 134.347 2097.17 133.332C2095.05 132.269 2093.57 131.496 2092.75 131.012C2092.75 129.417 2092.46 128.427 2091.88 128.04C2090.29 128.958 2088.5 129.973 2086.52 131.085C2084.53 132.148 2081.95 133.091 2078.76 133.912C2075.57 134.734 2071.77 135.145 2067.38 135.145C2063.17 135.145 2059.06 134.372 2055.05 132.825C2051.04 131.278 2047.78 129.079 2045.26 126.227C2042.8 123.327 2041.57 120.065 2041.57 116.44C2041.57 113.057 2043.14 109.528 2046.28 105.855C2049.42 102.133 2053.63 99.0641 2058.89 96.6475C2064.16 94.1825 2069.91 92.95 2076.15 92.95C2079.53 92.95 2082.75 93.4575 2085.79 94.4725C2088.84 95.4391 2091.16 96.5266 2092.75 97.735V91.065C2090.87 88.5516 2088.98 86.8116 2087.1 85.845C2085.21 84.8783 2082.31 84.395 2078.4 84.395C2073.32 84.5883 2069.31 85.0233 2066.36 85.7C2063.46 86.3283 2060.32 87.3433 2056.94 88.745C2053.6 90.0983 2050.8 91.1616 2048.53 91.935V86.57C2048.86 86.28 2049.35 85.8691 2049.98 85.3375C2050.6 84.8058 2051.02 84.4191 2051.21 84.1775C2051.45 83.9358 2051.6 83.7908 2051.64 83.7425V65.0375H2036.78V56.3374H2109.43V65.0375ZM2092.75 110.93C2092.75 108.707 2090.26 106.846 2085.28 105.347C2080.31 103.849 2076.78 103.1 2074.7 103.1C2069.43 103.1 2064.62 104.212 2060.27 106.435C2055.97 108.658 2052.59 111.244 2050.12 114.192C2047.66 117.092 2046.42 119.485 2046.42 121.37C2047.1 123.4 2048.6 124.802 2050.92 125.575C2053.29 126.3 2055.8 126.662 2058.46 126.662C2063.39 126.662 2067.96 126.01 2072.16 124.705C2076.41 123.4 2080.09 121.805 2083.18 119.92C2086.27 117.987 2088.64 116.15 2090.29 114.41C2091.93 112.67 2092.75 111.51 2092.75 110.93ZM2191.06 65.0375H2135.96V92.08C2136.92 90.8716 2138.59 89.035 2140.96 86.57C2143.38 84.105 2146.47 81.64 2150.24 79.175C2154.06 76.71 2157.85 75.4775 2161.62 75.4775C2165.54 75.4775 2169.14 76.2991 2172.43 77.9425C2175.71 79.5375 2178.52 81.6641 2180.84 84.3225C2183.2 86.9325 2184.99 89.7841 2186.2 92.8775C2187.46 95.9708 2188.09 98.9191 2188.09 101.722C2188.09 105.879 2187 109.987 2184.82 114.047C2182.65 118.059 2179.84 121.636 2176.41 124.777C2173.03 127.871 2169.48 130.36 2165.76 132.245C2162.08 134.082 2158.92 135 2156.26 135C2152.92 135 2149.9 134.009 2147.2 132.027C2144.54 129.997 2140.6 126.324 2135.38 121.007V135.87L2122.76 130.432V65.0375H2110.87V56.3374H2122.76C2122.76 50.1024 2121.8 44.0366 2119.86 38.1399C2117.98 32.1949 2115.73 26.9749 2113.12 22.4799C2110.51 17.9849 2107.83 13.9974 2105.07 10.5174C2102.27 7.03741 2100.09 4.62074 2098.55 3.26741H2114.43C2116.31 4.86241 2118.24 6.74741 2120.23 8.92241C2122.21 11.0491 2124.45 14.3116 2126.97 18.7099C2129.48 23.1083 2131.61 28.4491 2133.35 34.7324C2135.09 41.0158 2135.96 48.2174 2135.96 56.3374H2191.06V65.0375ZM2180.04 109.19C2180.04 107.208 2179.36 104.912 2178.01 102.302C2176.7 99.6441 2174.87 97.0825 2172.5 94.6175C2170.13 92.1525 2167.23 90.0741 2163.8 88.3825C2160.41 86.6908 2156.81 85.845 2153 85.845C2150.68 85.845 2148.31 86.5458 2145.89 87.9475C2143.52 89.3491 2141.54 90.9683 2139.95 92.805C2138.35 94.5933 2137.55 95.9466 2137.55 96.865C2137.55 100.2 2139 104.332 2141.9 109.262C2144.85 114.144 2148.57 118.397 2153.07 122.022C2157.56 125.647 2161.96 127.46 2166.26 127.46C2168.73 127.46 2171 126.542 2173.08 124.705C2175.2 122.868 2176.9 120.524 2178.15 117.672C2179.41 114.821 2180.04 111.993 2180.04 109.19ZM2273.05 65.0375H2214.55V86.86C2215.61 85.7 2216.82 84.4191 2218.17 83.0175C2219.52 81.6158 2221.07 80.2866 2222.81 79.03C2224.55 77.7733 2226.68 76.6858 2229.19 75.7675C2231.7 74.8491 2234.53 74.39 2237.67 74.39C2243.62 74.39 2248.86 76.0333 2253.41 79.32C2258 82.5583 2261.57 86.715 2264.14 91.79C2266.7 96.865 2267.98 101.867 2267.98 106.797C2267.98 111.921 2266.75 116.657 2264.28 121.007C2261.82 125.357 2259.35 128.741 2256.89 131.157C2254.42 133.574 2252.58 135.242 2251.38 136.16L2239.49 129.055C2240.16 128.088 2241.61 126.469 2243.84 124.197C2246.06 121.926 2248.02 119.678 2249.71 117.455C2251.4 115.232 2252.9 112.452 2254.2 109.117C2255.51 105.782 2256.18 102.037 2256.23 97.88C2256.23 92.805 2255.02 88.6966 2252.61 85.555C2250.19 82.365 2246.86 80.77 2242.6 80.77C2238.64 80.915 2234.41 82.3408 2229.92 85.0475C2225.47 87.7541 2221.72 91.1375 2218.68 95.1975C2215.63 99.2575 2214.11 103.172 2214.11 106.942V135.725L2200.55 128.475V65.0375H2192.58V56.3374H2200.55C2200.55 48.5074 2199.44 41.4991 2197.22 35.3124C2194.99 29.0774 2192.41 23.9541 2189.46 19.9424C2186.51 15.9308 2183.97 12.9582 2181.85 11.0249C2179.67 9.09158 2178.1 7.81075 2177.14 7.18241L2191.78 7.03741C2195.31 8.97075 2198.84 12.5232 2202.37 17.6949C2205.94 22.8183 2208.87 28.8841 2211.14 35.8924C2213.41 42.8524 2214.55 49.6674 2214.55 56.3374H2273.05V65.0375ZM2345.84 65.0375H2297.55V76.6375C2297.8 76.6375 2297.99 76.7341 2298.13 76.9275C2298.28 77.1208 2298.45 77.2175 2298.64 77.2175C2298.55 77.2175 2299.54 76.9275 2301.61 76.3475C2303.74 75.7675 2306.16 75.26 2308.86 74.825C2311.57 74.3416 2314.18 74.1 2316.69 74.1C2322.49 74.1 2327.06 74.8975 2330.4 76.4925C2333.73 78.0875 2336.12 80.335 2337.57 83.235C2339.07 86.135 2339.97 89.3975 2340.26 93.0225C2340.6 96.5991 2340.76 101.529 2340.76 107.812V136.45C2338.11 135.387 2335.71 134.347 2333.59 133.332C2331.46 132.269 2329.99 131.496 2329.16 131.012C2329.16 129.417 2328.87 128.427 2328.29 128.04C2326.7 128.958 2324.91 129.973 2322.93 131.085C2320.95 132.148 2318.36 133.091 2315.17 133.912C2311.98 134.734 2308.19 135.145 2303.79 135.145C2299.58 135.145 2295.48 134.372 2291.46 132.825C2287.45 131.278 2284.19 129.079 2281.68 126.227C2279.21 123.327 2277.98 120.065 2277.98 116.44C2277.98 113.057 2279.55 109.528 2282.69 105.855C2285.83 102.133 2290.04 99.0641 2295.31 96.6475C2300.58 94.1825 2306.33 92.95 2312.56 92.95C2315.95 92.95 2319.16 93.4575 2322.2 94.4725C2325.25 95.4391 2327.57 96.5266 2329.16 97.735V91.065C2327.28 88.5516 2325.39 86.8116 2323.51 85.845C2321.62 84.8783 2318.72 84.395 2314.81 84.395C2309.73 84.5883 2305.72 85.0233 2302.77 85.7C2299.87 86.3283 2296.73 87.3433 2293.35 88.745C2290.01 90.0983 2287.21 91.1616 2284.94 91.935V86.57C2285.28 86.28 2285.76 85.8691 2286.39 85.3375C2287.02 84.8058 2287.43 84.4191 2287.62 84.1775C2287.86 83.9358 2288.01 83.7908 2288.06 83.7425V65.0375H2273.19V56.3374H2345.84V65.0375ZM2329.16 110.93C2329.16 108.707 2326.68 106.846 2321.7 105.347C2316.72 103.849 2313.19 103.1 2311.11 103.1C2305.84 103.1 2301.03 104.212 2296.68 106.435C2292.38 108.658 2289 111.244 2286.53 114.192C2284.07 117.092 2282.84 119.485 2282.84 121.37C2283.51 123.4 2285.01 124.802 2287.33 125.575C2289.7 126.3 2292.21 126.662 2294.87 126.662C2299.8 126.662 2304.37 126.01 2308.57 124.705C2312.83 123.4 2316.5 121.805 2319.59 119.92C2322.69 117.987 2325.06 116.15 2326.7 114.41C2328.34 112.67 2329.16 111.51 2329.16 110.93ZM2425.22 65.0375H2347.29V56.3374H2425.22V65.0375ZM2409.64 96.865C2409.64 85.265 2404.15 79.465 2393.18 79.465C2389.99 79.465 2386.7 80.4075 2383.32 82.2925C2379.98 84.1775 2376.99 86.7875 2374.33 90.1225C2371.72 93.4575 2369.59 97.4208 2367.95 102.012C2366.35 106.604 2365.56 111.365 2365.56 116.295V137.393L2353.67 131.157V76.6375H2366.14V85.265C2367.15 84.4916 2368.82 83.1866 2371.14 81.35C2373.51 79.5133 2376.36 77.8216 2379.69 76.275C2383.08 74.7283 2386.73 73.955 2390.64 73.955C2394.46 73.955 2398.13 74.7766 2401.66 76.42C2405.19 78.0633 2408.33 80.3591 2411.09 83.3075C2413.84 86.2558 2416.02 89.7358 2417.61 93.7475C2419.21 97.7108 2420 101.964 2420 106.507C2420 111.631 2418.89 116.875 2416.67 122.24C2414.45 127.557 2410.92 132.849 2406.08 138.118L2392.09 129.345C2392.96 128.185 2394.58 126.493 2396.95 124.27C2399.32 122.047 2401.4 119.799 2403.18 117.527C2404.97 115.207 2406.5 112.356 2407.75 108.972C2409.01 105.541 2409.64 101.505 2409.64 96.865ZM2510.55 65.0375H2501.06L2500.91 135.87L2487.72 130.215V119.847C2483.85 124.826 2480.13 128.596 2476.55 131.157C2473.02 133.719 2469.06 135 2464.66 135C2460.41 135 2455.65 133.308 2450.38 129.925C2445.11 126.542 2440.62 122.216 2436.89 116.947C2433.22 111.679 2431.38 106.411 2431.38 101.142C2431.48 99.1608 2432.16 96.72 2433.41 93.82C2434.72 90.8716 2436.6 87.8991 2439.07 84.9025C2441.58 81.8575 2444.6 79.3441 2448.13 77.3625C2451.66 75.3808 2455.6 74.39 2459.95 74.39C2464.98 74.39 2469.3 75.9125 2472.93 78.9575C2476.55 81.9541 2481.48 86.8358 2487.72 93.6025V65.0375H2425.66V56.3374H2487.72C2487.72 51.2624 2487.57 47.0816 2487.28 43.7949C2487.04 40.4599 2486.32 36.8349 2485.11 32.9199C2483.95 28.9566 2482.01 24.4858 2479.31 19.5074C2476.6 14.5291 2472.95 8.97075 2468.36 2.83241C2468.17 2.83241 2468.07 2.44574 2468.07 1.67241C2468.07 1.09241 2468.21 0.705741 2468.5 0.512407H2482.35C2486.94 5.58741 2491.2 12.3299 2495.11 20.7399C2499.08 29.1499 2501.06 41.0158 2501.06 56.3374H2510.55V65.0375ZM2484.24 98.025C2484.24 94.98 2482.5 92.0075 2479.02 89.1075C2475.54 86.1591 2471.4 84.685 2466.62 84.685C2464.83 84.685 2461.88 85.6516 2457.77 87.585C2453.67 89.5183 2449.92 92.37 2446.54 96.14C2443.2 99.91 2441.53 104.405 2441.53 109.625C2441.53 114.603 2442.94 118.663 2445.74 121.805C2448.54 124.947 2451.73 126.517 2455.31 126.517C2459.47 126.517 2463.79 124.777 2468.29 121.297C2472.83 117.769 2476.62 113.709 2479.67 109.117C2482.71 104.526 2484.24 100.828 2484.24 98.025ZM2592.04 65.0375H2533.53V86.86C2534.6 85.7 2535.81 84.4191 2537.16 83.0175C2538.51 81.6158 2540.06 80.2866 2541.8 79.03C2543.54 77.7733 2545.67 76.6858 2548.18 75.7675C2550.69 74.8491 2553.52 74.39 2556.66 74.39C2562.61 74.39 2567.85 76.0333 2572.39 79.32C2576.99 82.5583 2580.56 86.715 2583.12 91.79C2585.69 96.865 2586.97 101.867 2586.97 106.797C2586.97 111.921 2585.73 116.657 2583.27 121.007C2580.8 125.357 2578.34 128.741 2575.87 131.157C2573.41 133.574 2571.57 135.242 2570.36 136.16L2558.47 129.055C2559.15 128.088 2560.6 126.469 2562.82 124.197C2565.05 121.926 2567 119.678 2568.7 117.455C2570.39 115.232 2571.89 112.452 2573.19 109.117C2574.5 105.782 2575.17 102.037 2575.22 97.88C2575.22 92.805 2574.01 88.6966 2571.6 85.555C2569.18 82.365 2565.84 80.77 2561.59 80.77C2557.63 80.915 2553.4 82.3408 2548.9 85.0475C2544.46 87.7541 2540.71 91.1375 2537.67 95.1975C2534.62 99.2575 2533.1 103.172 2533.1 106.942V135.725L2519.54 128.475V65.0375H2511.57V56.3374H2519.54C2519.54 48.5074 2518.43 41.4991 2516.21 35.3124C2513.98 29.0774 2511.4 23.9541 2508.45 19.9424C2505.5 15.9308 2502.96 12.9582 2500.84 11.0249C2498.66 9.09158 2497.09 7.81075 2496.12 7.18241L2510.77 7.03741C2514.3 8.97075 2517.83 12.5232 2521.35 17.6949C2524.93 22.8183 2527.85 28.8841 2530.13 35.8924C2532.4 42.8524 2533.53 49.6674 2533.53 56.3374H2592.04V65.0375ZM2664.83 65.0375H2616.54V76.6375C2616.79 76.6375 2616.98 76.7341 2617.12 76.9275C2617.27 77.1208 2617.44 77.2175 2617.63 77.2175C2617.53 77.2175 2618.53 76.9275 2620.6 76.3475C2622.73 75.7675 2625.15 75.26 2627.85 74.825C2630.56 74.3416 2633.17 74.1 2635.68 74.1C2641.48 74.1 2646.05 74.8975 2649.39 76.4925C2652.72 78.0875 2655.11 80.335 2656.56 83.235C2658.06 86.135 2658.96 89.3975 2659.25 93.0225C2659.58 96.5991 2659.75 101.529 2659.75 107.812V136.45C2657.1 135.387 2654.7 134.347 2652.58 133.332C2650.45 132.269 2648.98 131.496 2648.15 131.012C2648.15 129.417 2647.86 128.427 2647.28 128.04C2645.69 128.958 2643.9 129.973 2641.92 131.085C2639.94 132.148 2637.35 133.091 2634.16 133.912C2630.97 134.734 2627.18 135.145 2622.78 135.145C2618.57 135.145 2614.47 134.372 2610.45 132.825C2606.44 131.278 2603.18 129.079 2600.67 126.227C2598.2 123.327 2596.97 120.065 2596.97 116.44C2596.97 113.057 2598.54 109.528 2601.68 105.855C2604.82 102.133 2609.03 99.0641 2614.3 96.6475C2619.56 94.1825 2625.32 92.95 2631.55 92.95C2634.93 92.95 2638.15 93.4575 2641.19 94.4725C2644.24 95.4391 2646.56 96.5266 2648.15 97.735V91.065C2646.27 88.5516 2644.38 86.8116 2642.5 85.845C2640.61 84.8783 2637.71 84.395 2633.8 84.395C2628.72 84.5883 2624.71 85.0233 2621.76 85.7C2618.86 86.3283 2615.72 87.3433 2612.34 88.745C2609 90.0983 2606.2 91.1616 2603.93 91.935V86.57C2604.27 86.28 2604.75 85.8691 2605.38 85.3375C2606.01 84.8058 2606.42 84.4191 2606.61 84.1775C2606.85 83.9358 2607 83.7908 2607.05 83.7425V65.0375H2592.18V56.3374H2664.83V65.0375ZM2648.15 110.93C2648.15 108.707 2645.66 106.846 2640.69 105.347C2635.71 103.849 2632.18 103.1 2630.1 103.1C2624.83 103.1 2620.02 104.212 2615.67 106.435C2611.37 108.658 2607.99 111.244 2605.52 114.192C2603.06 117.092 2601.83 119.485 2601.83 121.37C2602.5 123.4 2604 124.802 2606.32 125.575C2608.69 126.3 2611.2 126.662 2613.86 126.662C2618.79 126.662 2623.36 126.01 2627.56 124.705C2631.82 123.4 2635.49 121.805 2638.58 119.92C2641.68 117.987 2644.05 116.15 2645.69 114.41C2647.33 112.67 2648.15 111.51 2648.15 110.93ZM2734.57 65.0375H2687.01V83.7425C2688.27 83.1625 2690.23 82.1233 2692.88 80.625C2695.59 79.1266 2698.27 78.015 2700.93 77.29C2703.64 76.565 2706.88 76.2025 2710.65 76.2025C2715.43 76.2025 2720.07 77.6766 2724.57 80.625C2729.06 83.525 2731.31 87.5366 2731.31 92.66C2731.31 96.0433 2730.17 99.0158 2727.9 101.577C2725.63 104.139 2722.9 106.048 2719.71 107.305C2716.57 108.562 2713.84 109.19 2711.52 109.19L2728.34 129.635L2719.13 136.305L2693.25 105.565L2698.03 95.6325C2700.59 96.3575 2703.28 96.72 2706.08 96.72C2710.38 96.72 2713.86 95.6566 2716.52 93.53C2719.23 91.4033 2720.58 88.455 2720.58 84.685C2720.58 80.8183 2717.82 78.885 2712.31 78.885C2708.69 78.885 2704.89 80.5041 2700.93 83.7425C2696.97 86.9325 2693.63 90.7025 2690.93 95.0525C2688.22 99.4025 2686.87 102.979 2686.87 105.782V136.16L2674.4 130.577V65.0375H2665.19V56.3374H2673.96C2673.96 48.6524 2673.21 41.9099 2671.71 36.1099C2670.26 30.3099 2668.52 25.5249 2666.49 21.7549C2664.42 17.9849 2662.1 14.4324 2659.53 11.0974C2656.97 7.76241 2655.59 5.90158 2655.4 5.51491H2670.12C2670.8 6.14324 2671.93 7.49658 2673.53 9.57491C2675.12 11.6049 2676.91 14.6258 2678.89 18.6374C2680.92 22.6491 2682.73 27.9658 2684.33 34.5874C2685.92 41.1608 2686.72 48.4108 2686.72 56.3374H2734.57V65.0375Z" fill="black"/>
</svg>
