<svg width="92" height="24" viewBox="0 0 92 24" fill="none" xmlns="http://www.w3.org/2000/svg">
<rect width="36.262" height="21.9644" transform="translate(0.781738 1.01778)" fill="#525252"/>
<path d="M11.7309 8.9363H5.73962V11.8768C5.84473 11.7454 6.02605 11.5457 6.28357 11.2776C6.54635 11.0096 6.8827 10.7416 7.29263 10.4735C7.70782 10.2055 8.12038 10.0715 8.53031 10.0715C8.956 10.0715 9.34754 10.1608 9.70492 10.3395C10.0623 10.513 10.3671 10.7442 10.6194 11.0333C10.8769 11.3171 11.0714 11.6271 11.2027 11.9635C11.3394 12.2998 11.4077 12.6204 11.4077 12.9252C11.4077 13.3772 11.2895 13.8239 11.053 14.2654C10.8165 14.7016 10.5116 15.0905 10.1385 15.4321C9.77061 15.7685 9.38433 16.0391 8.97965 16.2441C8.58023 16.4438 8.236 16.5437 7.94694 16.5437C7.58431 16.5437 7.25584 16.4359 6.96153 16.2205C6.67248 15.9997 6.24415 15.6003 5.67656 15.0222V16.6383L4.30487 16.047V8.9363H3.01201V7.9903H4.30487C4.30487 7.31234 4.19976 6.65277 3.98953 6.0116C3.78457 5.36517 3.54019 4.79757 3.25639 4.30881C2.97259 3.82005 2.68091 3.38646 2.38134 3.00807C2.07652 2.62967 1.84002 2.36689 1.67185 2.21974H3.39829C3.60325 2.39317 3.81347 2.59814 4.02895 2.83463C4.24443 3.06588 4.48881 3.42063 4.7621 3.89888C5.03538 4.37713 5.26663 4.95787 5.45583 5.64108C5.64502 6.3243 5.73962 7.10738 5.73962 7.9903H11.7309V8.9363ZM10.5327 13.7372C10.5327 13.5217 10.4591 13.2721 10.3119 12.9883C10.17 12.6993 9.97032 12.4207 9.7128 12.1527C9.45528 11.8846 9.13995 11.6587 8.76681 11.4747C8.39892 11.2908 8.00738 11.1988 7.5922 11.1988C7.33993 11.1988 7.08241 11.275 6.81963 11.4274C6.56211 11.5798 6.34664 11.7559 6.1732 11.9556C5.99977 12.1501 5.91306 12.2972 5.91306 12.3971C5.91306 12.7597 6.07072 13.209 6.38605 13.7451C6.70664 14.2759 7.11132 14.7384 7.60008 15.1326C8.08884 15.5267 8.5671 15.7238 9.03484 15.7238C9.30287 15.7238 9.54988 15.624 9.77587 15.4242C10.0071 15.2245 10.1911 14.9696 10.3277 14.6596C10.4643 14.3495 10.5327 14.042 10.5327 13.7372ZM20.4971 8.9363H13.8988V13.9895C13.9093 14.3574 13.9777 14.7069 14.1038 15.038C14.2352 15.3638 14.4244 15.6266 14.6714 15.8263C14.9184 16.026 15.2101 16.1259 15.5464 16.1259C16.0352 16.1259 16.4504 16.0181 16.792 15.8026C17.1336 15.5819 17.4016 15.3165 17.5961 15.0064C17.7905 14.6911 17.9298 14.3863 18.0139 14.092C18.098 13.7924 18.14 13.5506 18.14 13.3667V10.2292H19.7403V16.9457C19.63 16.8827 19.3908 16.7697 19.023 16.6067C18.6603 16.4438 18.3608 16.3098 18.1243 16.2047V15.574C17.851 15.7737 17.5856 15.9498 17.3281 16.1022C17.0705 16.2494 16.8051 16.3597 16.5318 16.4333C16.2586 16.5069 15.9406 16.5437 15.578 16.5437C15.0524 16.5437 14.54 16.407 14.0407 16.1337C13.5467 15.8605 13.1473 15.4873 12.8425 15.0143C12.5429 14.5413 12.3931 14.0289 12.3931 13.4771V8.9363H11.4392V7.9903H20.4971V8.9363ZM23.0986 7.16256C23.0776 7.18358 23.0172 7.19409 22.9173 7.19409C22.8332 7.19409 22.7596 7.18358 22.6966 7.16256C22.3182 6.42153 22.0764 5.96955 21.9713 5.80663C21.8557 5.64897 21.7085 5.54649 21.5298 5.49919C21.3564 5.45189 21.1909 5.40721 21.0332 5.36517C20.8808 5.31787 20.7573 5.21276 20.6627 5.04984C20.6417 5.01831 20.6022 4.89743 20.5444 4.68721C20.4866 4.47173 20.3736 4.22209 20.2055 3.93829V3.75698H20.5129C21.1278 3.94618 21.564 4.11961 21.8215 4.27728C22.079 4.42969 22.242 4.57947 22.3103 4.72662C22.3839 4.86852 22.4864 5.16546 22.6177 5.61743C22.7491 6.06415 22.9042 6.4662 23.0829 6.82358C23.0881 6.87088 23.0907 6.91555 23.0907 6.95759C23.096 6.99438 23.0986 7.0627 23.0986 7.16256ZM23.5637 8.9363H20.3552V7.9903H23.5637V8.9363ZM22.665 16.725L21.3406 15.9918V9.90594H22.665V16.725ZM26.993 8.9363H26.1573V7.9903H26.993V8.9363ZM24.2969 8.9363H23.3982V7.9903H24.2969V8.9363ZM25.8972 7.03643V16.7408C25.8762 16.7408 25.8052 16.7092 25.6843 16.6462C25.5687 16.5883 25.4347 16.52 25.2823 16.4412C25.1299 16.3624 24.9722 16.2835 24.8093 16.2047C24.6464 16.1206 24.557 16.0786 24.5413 16.0786V7.05219C24.515 6.42679 24.4072 5.84079 24.218 5.29422C24.0288 4.74765 23.816 4.29304 23.5795 3.93041C23.3483 3.56778 23.0986 3.23405 22.8306 2.92923C22.5573 2.62441 22.3891 2.43784 22.3261 2.36952H24.0052C24.4519 2.81624 24.8198 3.32865 25.1089 3.90676C25.3979 4.47961 25.6003 5.03933 25.7159 5.5859C25.8367 6.12722 25.8972 6.61073 25.8972 7.03643ZM35.9405 8.9363H34.9078L34.892 16.6383L33.4573 16.0234V14.8961C33.0368 15.4374 32.6321 15.8473 32.2432 16.1259C31.8596 16.4044 31.4286 16.5437 30.9504 16.5437C30.4879 16.5437 29.9702 16.3597 29.3974 15.9918C28.8245 15.624 28.3358 15.1536 27.9311 14.5807C27.5317 14.0079 27.3319 13.435 27.3319 12.8622C27.3425 12.6467 27.416 12.3813 27.5527 12.066C27.6946 11.7454 27.8995 11.4222 28.1676 11.0963C28.4409 10.7652 28.7693 10.4919 29.153 10.2765C29.5366 10.061 29.965 9.95324 30.438 9.95324C30.9845 9.95324 31.4549 10.1188 31.8491 10.4499C32.2432 10.7757 32.7793 11.3065 33.4573 12.0423V8.9363H26.7092V7.9903H33.4573C33.4573 7.43847 33.4415 6.98387 33.41 6.6265C33.3837 6.26386 33.3049 5.8697 33.1735 5.444C33.0473 5.01305 32.8371 4.52691 32.5428 3.98559C32.2485 3.44428 31.8517 2.83989 31.3524 2.17244C31.3314 2.17244 31.3209 2.13039 31.3209 2.04631C31.3209 1.98324 31.3367 1.9412 31.3682 1.92017H32.8739C33.3732 2.472 33.8357 3.20515 34.2614 4.11961C34.6923 5.03407 34.9078 6.3243 34.9078 7.9903H35.9405V8.9363ZM33.0789 12.5232C33.0789 12.1921 32.8897 11.8689 32.5113 11.5535C32.1329 11.233 31.6835 11.0727 31.1632 11.0727C30.9688 11.0727 30.6482 11.1778 30.2015 11.388C29.7547 11.5982 29.3474 11.9083 28.9796 12.3182C28.6169 12.7282 28.4356 13.2169 28.4356 13.7845C28.4356 14.3258 28.588 14.7673 28.8928 15.1089C29.1977 15.4505 29.5445 15.6213 29.9334 15.6213C30.3854 15.6213 30.8558 15.4321 31.3445 15.0537C31.8386 14.6701 32.2511 14.2286 32.5822 13.7293C32.9133 13.2301 33.0789 12.828 33.0789 12.5232Z" fill="white"/>
<rect width="54.1747" height="22.1747" transform="translate(37.0439 0.912651)" fill="#4DC71F"/>
<path d="M47.3478 8.39263H38.3057V7.44663H47.3478V8.39263ZM46.7172 12.7521C46.7172 13.3249 46.5437 13.8663 46.1969 14.376C45.85 14.8806 45.4191 15.28 44.904 15.5743C44.3942 15.8686 43.916 16.0158 43.4693 16.0158C43.0646 16.0158 42.6284 15.8502 42.1606 15.5191C41.6981 15.188 41.1279 14.7019 40.45 14.0607V20.7457L39.1886 20.0835V9.65395H40.4184V11.5775C40.513 11.4776 40.6707 11.3094 40.8914 11.0729C41.1174 10.8364 41.3749 10.5894 41.664 10.3319C41.953 10.0691 42.271 9.8379 42.6179 9.63819C42.9647 9.43322 43.2906 9.33074 43.5954 9.33074C43.8844 9.33074 44.2077 9.43059 44.565 9.6303C44.9277 9.82476 45.2719 10.0849 45.5977 10.4107C45.9288 10.7366 46.1969 11.1071 46.4018 11.5223C46.6121 11.9322 46.7172 12.3422 46.7172 12.7521ZM45.9367 11.8376C45.9367 11.7115 45.8842 11.5354 45.7791 11.3094C45.6792 11.0835 45.5242 10.8785 45.3139 10.6945C45.1037 10.5053 44.8436 10.4107 44.5335 10.4107C44.1866 10.4107 43.7977 10.5264 43.3668 10.7576C42.9358 10.9889 42.5259 11.2805 42.137 11.6327C41.7481 11.9795 41.4275 12.3369 41.1752 12.7048C40.9282 13.0674 40.8047 13.3644 40.8047 13.5956C40.8047 13.7585 40.8967 13.9267 41.0806 14.1001C41.2646 14.2683 41.5011 14.4128 41.7901 14.5337C42.0792 14.6493 42.3656 14.7071 42.6494 14.7071C43.1224 14.7071 43.5639 14.6073 43.9738 14.4076C44.389 14.2026 44.7385 13.9503 45.0223 13.6508C45.3113 13.3512 45.5347 13.0385 45.6923 12.7127C45.8553 12.3816 45.9367 12.0899 45.9367 11.8376ZM54.8685 8.39263H49.6182V9.65395C49.6445 9.65395 49.6655 9.66446 49.6813 9.68549C49.697 9.70651 49.7154 9.71702 49.7365 9.71702C49.726 9.71702 49.8337 9.68549 50.0597 9.62242C50.2909 9.55935 50.5537 9.50417 50.848 9.45687C51.1423 9.40432 51.4261 9.37804 51.6994 9.37804C52.3301 9.37804 52.8267 9.46476 53.1893 9.63819C53.552 9.81162 53.8121 10.056 53.9698 10.3713C54.1327 10.6867 54.2299 11.0414 54.2615 11.4356C54.2983 11.8245 54.3167 12.3605 54.3167 13.0438V16.1577C54.0276 16.042 53.7675 15.9291 53.5362 15.8187C53.305 15.7031 53.1447 15.619 53.0553 15.5664C53.0553 15.393 53.0238 15.2852 52.9607 15.2432C52.7873 15.3431 52.5928 15.4534 52.3774 15.5743C52.1619 15.6899 51.8807 15.7924 51.5339 15.8818C51.187 15.9711 50.7744 16.0158 50.2962 16.0158C49.8389 16.0158 49.3922 15.9317 48.956 15.7635C48.5198 15.5953 48.1651 15.3562 47.8918 15.0461C47.6237 14.7308 47.4897 14.376 47.4897 13.9819C47.4897 13.614 47.6605 13.2303 48.0021 12.8309C48.3438 12.4262 48.801 12.0925 49.3738 11.8297C49.9467 11.5617 50.5721 11.4277 51.2501 11.4277C51.6179 11.4277 51.9674 11.4829 52.2985 11.5932C52.6296 11.6984 52.8819 11.8166 53.0553 11.948V11.2227C52.8504 10.9494 52.6454 10.7602 52.4404 10.6551C52.2355 10.55 51.9201 10.4975 51.4944 10.4975C50.9426 10.5185 50.5064 10.5658 50.1858 10.6394C49.8705 10.7077 49.5289 10.8181 49.161 10.9705C48.7984 11.1176 48.4935 11.2332 48.2465 11.3173V10.734C48.2833 10.7024 48.3359 10.6578 48.4042 10.5999C48.4725 10.5421 48.5172 10.5001 48.5382 10.4738C48.5645 10.4475 48.5803 10.4318 48.5855 10.4265V8.39263H46.9694V7.44663H54.8685V8.39263ZM53.0553 13.3827C53.0553 13.141 52.7847 12.9387 52.2434 12.7757C51.702 12.6128 51.3184 12.5314 51.0924 12.5314C50.5195 12.5314 49.9966 12.6522 49.5236 12.894C49.0559 13.1357 48.688 13.4169 48.42 13.7375C48.1519 14.0528 48.0179 14.313 48.0179 14.5179C48.0915 14.7387 48.2544 14.8911 48.5067 14.9752C48.7642 15.054 49.0375 15.0934 49.3265 15.0934C49.8626 15.0934 50.3592 15.0225 50.8165 14.8806C51.279 14.7387 51.6784 14.5652 52.0147 14.3603C52.3511 14.1501 52.6086 13.9503 52.7873 13.7611C52.966 13.5719 53.0553 13.4458 53.0553 13.3827ZM62.7912 8.39263H61.9319V11.3804C61.6271 11.2017 61.1909 11.0467 60.6233 10.9153C60.0557 10.7839 59.5722 10.7182 59.1728 10.7182C58.8417 10.7182 58.4449 10.7576 57.9824 10.8364C57.5252 10.91 57.1126 11.044 56.7447 11.2385C56.3821 11.4277 56.2008 11.68 56.2008 11.9953C56.2008 12.1267 56.2533 12.2659 56.3584 12.4131C56.4688 12.555 56.637 12.626 56.863 12.626C57.11 12.626 57.4673 12.5419 57.9351 12.3737C58.4081 12.2003 58.7549 12.082 58.9757 12.0189C59.2017 11.9506 59.5301 11.9165 59.9611 11.9165C60.3658 11.9165 60.7494 11.99 61.112 12.1372C61.4799 12.2791 61.7716 12.4867 61.9871 12.76C62.2078 13.0333 62.3182 13.3486 62.3182 13.706C62.3182 14.1317 62.1632 14.5179 61.8531 14.8648C61.543 15.2117 61.1699 15.485 60.7337 15.6847C60.3027 15.8791 59.8901 15.9895 59.496 16.0158C59.8744 16.3942 60.2344 16.5834 60.576 16.5834C60.6864 16.5834 60.8046 16.5676 60.9307 16.5361L61.7269 17.8368C61.6849 17.8736 61.5824 17.9183 61.4195 17.9708C61.2618 18.0234 61.0306 18.0497 60.7258 18.0497C60.2896 18.0497 59.9585 17.9261 59.7325 17.6791C59.5065 17.4321 59.2726 17.0984 59.0309 16.678C58.7944 16.2575 58.5999 16.0473 58.4475 16.0473C58.0533 16.0315 57.6618 15.9921 57.2729 15.9291C56.8892 15.8607 56.5319 15.7241 56.2008 15.5191C55.8697 15.3142 55.7041 15.033 55.7041 14.6756C55.7041 14.4391 55.7829 14.2709 55.9406 14.1711C56.1035 14.066 56.2875 14.0134 56.4924 14.0134C56.7447 14.0134 56.947 14.0502 57.0995 14.1238C57.2519 14.1974 57.4384 14.3103 57.6592 14.4628C57.8852 14.6099 58.1085 14.7229 58.3292 14.8017C58.5552 14.8806 58.8574 14.92 59.2358 14.92C59.5039 14.92 59.8586 14.8727 60.3001 14.7781C60.7468 14.6835 61.141 14.5442 61.4826 14.3603C61.8242 14.1711 61.995 13.9425 61.995 13.6744C61.995 13.5273 61.9424 13.409 61.8373 13.3197C61.7322 13.2251 61.6113 13.162 61.4747 13.1305C61.338 13.0937 61.1961 13.0753 61.049 13.0753C60.8545 13.0753 60.6469 13.1042 60.4262 13.162C60.2107 13.2198 59.7903 13.3328 59.1649 13.501C58.5395 13.6692 58.1558 13.7533 58.0139 13.7533C57.6513 13.7533 57.2781 13.6508 56.8945 13.4458C56.5161 13.2356 56.1981 12.9439 55.9406 12.5708C55.6883 12.1976 55.5596 11.7903 55.5543 11.3489C55.5543 10.8706 55.733 10.4843 56.0904 10.19C56.4478 9.89045 56.8761 9.6776 57.3754 9.55147C57.8746 9.42534 58.345 9.36227 58.7865 9.36227C59.0808 9.36227 59.4513 9.40957 59.898 9.50417C60.35 9.59352 60.6942 9.66972 60.9307 9.73279V8.39263H54.6556V7.44663H62.7912V8.39263ZM70.7218 8.39263H69.8625V11.3804C69.5577 11.2017 69.1215 11.0467 68.5539 10.9153C67.9863 10.7839 67.5028 10.7182 67.1033 10.7182C66.7722 10.7182 66.3755 10.7576 65.913 10.8364C65.4557 10.91 65.0432 11.044 64.6753 11.2385C64.3127 11.4277 64.1313 11.68 64.1313 11.9953C64.1313 12.1267 64.1839 12.2659 64.289 12.4131C64.3994 12.555 64.5676 12.626 64.7935 12.626C65.0406 12.626 65.3979 12.5419 65.8657 12.3737C66.3387 12.2003 66.6855 12.082 66.9063 12.0189C67.1323 11.9506 67.4607 11.9165 67.8917 11.9165C68.2964 11.9165 68.68 11.99 69.0426 12.1372C69.4105 12.2791 69.7022 12.4867 69.9177 12.76C70.1384 13.0333 70.2488 13.3486 70.2488 13.706C70.2488 14.1317 70.0937 14.5179 69.7837 14.8648C69.4736 15.2117 69.1004 15.485 68.6642 15.6847C68.2333 15.8791 67.8207 15.9895 67.4266 16.0158C67.805 16.3942 68.165 16.5834 68.5066 16.5834C68.6169 16.5834 68.7352 16.5676 68.8613 16.5361L69.6575 17.8368C69.6155 17.8736 69.513 17.9183 69.3501 17.9708C69.1924 18.0234 68.9612 18.0497 68.6564 18.0497C68.2201 18.0497 67.889 17.9261 67.6631 17.6791C67.4371 17.4321 67.2032 17.0984 66.9614 16.678C66.7249 16.2575 66.5305 16.0473 66.3781 16.0473C65.9839 16.0315 65.5924 15.9921 65.2035 15.9291C64.8198 15.8607 64.4624 15.7241 64.1313 15.5191C63.8003 15.3142 63.6347 15.033 63.6347 14.6756C63.6347 14.4391 63.7135 14.2709 63.8712 14.1711C64.0341 14.066 64.2181 14.0134 64.423 14.0134C64.6753 14.0134 64.8776 14.0502 65.03 14.1238C65.1825 14.1974 65.369 14.3103 65.5898 14.4628C65.8157 14.6099 66.0391 14.7229 66.2598 14.8017C66.4858 14.8806 66.788 14.92 67.1664 14.92C67.4344 14.92 67.7892 14.8727 68.2307 14.7781C68.6774 14.6835 69.0715 14.5442 69.4132 14.3603C69.7548 14.1711 69.9256 13.9425 69.9256 13.6744C69.9256 13.5273 69.873 13.409 69.7679 13.3197C69.6628 13.2251 69.5419 13.162 69.4053 13.1305C69.2686 13.0937 69.1267 13.0753 68.9796 13.0753C68.7851 13.0753 68.5775 13.1042 68.3568 13.162C68.1413 13.2198 67.7209 13.3328 67.0955 13.501C66.4701 13.6692 66.0864 13.7533 65.9445 13.7533C65.5819 13.7533 65.2087 13.6508 64.8251 13.4458C64.4467 13.2356 64.1287 12.9439 63.8712 12.5708C63.6189 12.1976 63.4902 11.7903 63.4849 11.3489C63.4849 10.8706 63.6636 10.4843 64.021 10.19C64.3784 9.89045 64.8067 9.6776 65.306 9.55147C65.8052 9.42534 66.2756 9.36227 66.7171 9.36227C67.0114 9.36227 67.3819 9.40957 67.8286 9.50417C68.2806 9.59352 68.6248 9.66972 68.8613 9.73279V8.39263H62.5862V7.44663H70.7218V8.39263ZM73.3075 6.61889C73.2865 6.63991 73.226 6.65042 73.1262 6.65042C73.0421 6.65042 72.9685 6.63991 72.9054 6.61889C72.527 5.87786 72.2853 5.42588 72.1802 5.26296C72.0646 5.1053 71.9174 5.00281 71.7387 4.95551C71.5653 4.90822 71.3997 4.86354 71.2421 4.8215C71.0897 4.7742 70.9662 4.66909 70.8716 4.50617C70.8505 4.47463 70.8111 4.35376 70.7533 4.14354C70.6955 3.92806 70.5825 3.67842 70.4143 3.39462V3.21331H70.7218C71.3367 3.40251 71.7729 3.57594 72.0304 3.73361C72.2879 3.88602 72.4508 4.0358 72.5192 4.18295C72.5927 4.32485 72.6952 4.62179 72.8266 5.07376C72.958 5.52048 73.113 5.92253 73.2917 6.27991C73.297 6.32721 73.2996 6.37188 73.2996 6.41392C73.3049 6.45071 73.3075 6.51903 73.3075 6.61889ZM73.7726 8.39263H70.5641V7.44663H73.7726V8.39263ZM72.8739 16.1813L71.5495 15.4482V9.36227H72.8739V16.1813ZM82.1131 8.39263H73.6386V7.44663H82.1131V8.39263ZM80.4182 11.8534C80.4182 10.5921 79.8217 9.9614 78.6287 9.9614C78.2818 9.9614 77.9245 10.0639 77.5566 10.2689C77.194 10.4738 76.8681 10.7576 76.5791 11.1202C76.2953 11.4829 76.064 11.9138 75.8853 12.4131C75.7119 12.9124 75.6252 13.43 75.6252 13.9661V16.2601L74.3323 15.5822V9.65395H75.6882V10.5921C75.7986 10.508 75.9799 10.3661 76.2322 10.1664C76.4897 9.96666 76.7998 9.78271 77.1624 9.61454C77.5303 9.44636 77.9271 9.36227 78.3528 9.36227C78.768 9.36227 79.1674 9.45162 79.5511 9.6303C79.9347 9.80899 80.2763 10.0586 80.5759 10.3792C80.8755 10.6998 81.1119 11.0782 81.2854 11.5144C81.4588 11.9454 81.5455 12.4078 81.5455 12.9019C81.5455 13.459 81.4247 14.0292 81.1829 14.6125C80.9411 15.1906 80.5575 15.7661 80.0319 16.339L78.5105 15.3851C78.6051 15.259 78.7811 15.075 79.0386 14.8333C79.2962 14.5915 79.5222 14.3471 79.7166 14.1001C79.9111 13.8479 80.0766 13.5378 80.2133 13.1699C80.3499 12.7968 80.4182 12.3579 80.4182 11.8534ZM90.3117 17.2771C90.3117 17.8552 90.1777 18.2441 89.9097 18.4438C89.6417 18.6435 89.3001 18.7434 88.8849 18.7434C88.5748 18.7434 88.3173 18.704 88.1123 18.6251C87.9126 18.5463 87.5762 18.3913 87.1032 18.16C86.6302 17.9288 86.2282 17.758 85.8971 17.6476C85.566 17.5372 85.2113 17.4821 84.8329 17.4821C84.2653 17.4821 83.6556 17.6134 83.0039 17.8762C82.3523 18.139 81.7531 18.5148 81.2065 19.0035C80.6547 19.4923 80.2238 20.0678 79.9137 20.73C79.8927 20.6459 79.8822 20.5119 79.8822 20.3279C79.8822 19.9443 79.9768 19.5186 80.166 19.0508C80.3499 18.5883 80.6179 18.1495 80.97 17.7343C81.3222 17.3244 81.7505 16.988 82.255 16.7253C82.7648 16.4677 83.3193 16.339 83.9184 16.339C84.507 16.339 84.9616 16.4204 85.2822 16.5834C85.6081 16.7515 86.039 17.0169 86.5751 17.3796C87.1111 17.7422 87.5158 17.9235 87.7891 17.9235C88.1097 17.9235 88.4198 17.8421 88.7193 17.6791C89.0189 17.5215 89.258 17.3165 89.4367 17.0642C89.6206 16.812 89.7126 16.5702 89.7126 16.339C89.7126 16.0867 89.6548 15.8476 89.5392 15.6216C89.4288 15.3956 89.2712 15.2143 89.0662 15.0777C88.8612 14.941 88.6195 14.8727 88.3409 14.8727C88.0729 14.8727 87.6945 14.9673 87.2057 15.1565C86.7222 15.3457 86.2361 15.5375 85.7473 15.732C85.2586 15.9212 84.8802 16.0158 84.6121 16.0158C84.3651 16.0158 84.0629 15.9028 83.7056 15.6768C83.3482 15.4455 83.0355 15.1696 82.7674 14.849C82.4994 14.5232 82.3654 14.2289 82.3654 13.9661C82.3654 13.7296 82.5047 13.4905 82.7832 13.2487C83.067 13.007 83.3692 12.8703 83.6898 12.8388L83.7213 12.7521C83.5637 12.5314 83.4323 12.35 83.3272 12.2081C83.222 12.061 83.1406 11.9165 83.0828 11.7746C83.025 11.6274 82.9961 11.4435 82.9961 11.2227C83.0013 10.5605 83.2851 10.0928 83.8474 9.8195C84.415 9.54622 85.1219 9.40957 85.9681 9.40957C86.0048 9.40432 86.0311 9.38592 86.0469 9.35439C86.0627 9.3176 86.0732 9.28869 86.0784 9.26767V8.39263H81.9949V7.44663H90.0989V8.39263H87.324V9.71702C87.324 9.78009 87.3345 9.86417 87.3555 9.96929C87.3818 10.0744 87.4343 10.1427 87.5132 10.1743C87.6025 10.1743 87.7076 10.098 87.8285 9.94564C87.9546 9.78797 88.0624 9.66709 88.1517 9.583C88.2411 9.49366 88.3856 9.43585 88.5853 9.40957C88.7377 9.40957 88.898 9.46213 89.0662 9.56724C89.2396 9.66709 89.392 9.80374 89.5234 9.97717C89.6601 10.1506 89.7494 10.324 89.7914 10.4975L88.9716 11.4435C88.9716 11.2227 88.9138 10.9915 88.7982 10.7497C88.6878 10.5027 88.5354 10.3792 88.3409 10.3792C88.2936 10.3792 88.2148 10.4107 88.1044 10.4738C87.9941 10.5369 87.9389 10.6078 87.9389 10.6867C87.9389 10.6919 87.9678 10.7497 88.0256 10.8601C88.0834 10.9705 88.1307 11.0887 88.1675 11.2148C88.2095 11.341 88.2306 11.4934 88.2306 11.6721C88.2306 12.3711 87.9914 12.8283 87.5132 13.0438C87.0349 13.2592 86.3806 13.367 85.5502 13.367C84.7304 13.367 84.1286 13.5036 83.745 13.7769C83.3666 14.0502 83.1774 14.2972 83.1774 14.5179C83.1931 14.7177 83.2904 14.8674 83.4691 14.9673C83.6477 15.0619 83.787 15.1092 83.8869 15.1092C84.1076 15.1092 84.3336 15.0619 84.5648 14.9673C84.8013 14.8727 85.1508 14.7124 85.6133 14.4864C86.0758 14.2604 86.4989 14.0844 86.8825 13.9582C87.2662 13.8268 87.6498 13.7533 88.0335 13.7375C88.6326 13.7375 89.103 13.9819 89.4446 14.4706C89.7862 14.9594 90.0148 15.4823 90.1304 16.0394C90.2513 16.5965 90.3117 17.0091 90.3117 17.2771ZM87.2609 10.9468C87.2609 10.3109 86.9219 9.99294 86.244 9.99294C85.8498 9.99294 85.4714 10.0954 85.1088 10.3004C84.7461 10.5053 84.4518 10.7629 84.2258 11.0729C83.9999 11.383 83.8869 11.6852 83.8869 11.9795C83.8869 12.174 83.9788 12.3973 84.1628 12.6496C84.352 12.8966 84.6253 13.0227 84.9826 13.028C85.2086 13.028 85.5082 12.9413 85.8813 12.7679C86.2545 12.5892 86.5777 12.3448 86.851 12.0347C87.1243 11.7194 87.2609 11.3567 87.2609 10.9468Z" fill="white"/>
</svg>
