<svg width="81" height="24" viewBox="0 0 81 24" fill="none" xmlns="http://www.w3.org/2000/svg">
<rect width="53.4463" height="23.205" transform="translate(0.628418 0.397507)" fill="#525252"/>
<path d="M6.63803 9.03734H5.7552V8.03792H6.63803V9.03734ZM3.78967 9.03734H2.84021V8.03792H3.78967V9.03734ZM5.48036 7.03017V17.2826C5.45815 17.2826 5.3832 17.2493 5.25549 17.1827C5.13334 17.1216 4.99175 17.0494 4.83074 16.9661C4.66972 16.8828 4.50315 16.7995 4.33102 16.7163C4.1589 16.6274 4.06451 16.583 4.04785 16.583V7.04682C4.02009 6.38609 3.90627 5.767 3.70638 5.18956C3.5065 4.61211 3.28163 4.13183 3.03177 3.74872C2.78747 3.36561 2.52373 3.01303 2.24056 2.691C1.95184 2.36896 1.77416 2.17185 1.70753 2.09967H3.48151C3.95346 2.57162 4.34213 3.11298 4.64751 3.72374C4.95289 4.32894 5.16665 4.92027 5.28881 5.49771C5.41651 6.06961 5.48036 6.58042 5.48036 7.03017ZM9.31982 7.16342C9.29761 7.18563 9.23376 7.19674 9.12826 7.19674C9.03943 7.19674 8.96169 7.18563 8.89506 7.16342C8.49529 6.38054 8.23989 5.90304 8.12884 5.73091C8.00669 5.56434 7.85122 5.45607 7.66244 5.4061C7.47921 5.35613 7.30431 5.30893 7.13774 5.26452C6.97672 5.21454 6.84624 5.1035 6.7463 4.93137C6.72409 4.89806 6.68245 4.77036 6.62137 4.54826C6.5603 4.32061 6.44092 4.05688 6.26324 3.75705V3.56549H6.58806C7.23768 3.76538 7.69853 3.94861 7.9706 4.11518C8.24266 4.27619 8.41478 4.43444 8.48697 4.5899C8.5647 4.73982 8.67297 5.05353 8.81178 5.53103C8.95059 6.00298 9.11438 6.42773 9.30316 6.8053C9.30871 6.85527 9.31149 6.90246 9.31149 6.94688C9.31704 6.98575 9.31982 7.05793 9.31982 7.16342ZM9.8112 9.03734H6.42149V8.03792H9.8112V9.03734ZM8.86175 17.2659L7.46255 16.4914V10.0618H8.86175V17.2659ZM18.5728 9.03734H16.8322V11.361C17.1931 11.6941 17.429 11.9329 17.5401 12.0773C17.6511 12.2161 17.7788 12.4715 17.9232 12.8435H16.8155C16.8155 12.205 16.6351 11.7247 16.2742 11.4027C15.9132 11.0806 15.4496 10.9196 14.8833 10.9196C14.2281 10.9196 13.6312 11.0973 13.0926 11.4526C12.5596 11.808 12.1404 12.2577 11.835 12.8018C11.5297 13.3404 11.377 13.8596 11.377 14.3593C11.377 14.6702 11.4464 14.9617 11.5852 15.2338C11.7295 15.5003 11.96 15.7168 12.2765 15.8834C12.5985 16.05 13.0094 16.1333 13.5091 16.1333C14.1476 16.1333 14.639 16.0278 14.9832 15.8168C15.333 15.6002 15.5579 15.4226 15.6578 15.2838H17.4318C17.3652 15.5558 17.1792 15.8307 16.8738 16.1083C16.5684 16.3859 16.1992 16.6163 15.7661 16.7995C15.3386 16.9828 14.9444 17.0744 14.5835 17.0744C13.8839 17.0744 13.1759 16.8801 12.4597 16.4914C11.7434 16.0972 11.1577 15.5975 10.7024 14.9923C10.2526 14.387 10.0277 13.7902 10.0277 13.2016C10.0277 12.8685 10.1777 12.4382 10.4775 11.9107C10.7829 11.3777 11.2104 10.914 11.7601 10.5198C12.3098 10.1256 12.9372 9.9285 13.6423 9.9285C14.0976 9.9285 14.4863 9.9868 14.8083 10.1034C15.1304 10.2144 15.3608 10.3199 15.4996 10.4199V9.03734H9.61965V8.03792H18.5728V9.03734ZM27.2179 9.03734H24.9442V10.6781C25.0941 10.7114 25.219 10.753 25.3189 10.803C25.4189 10.8474 25.4827 10.8807 25.5105 10.9029V11.8857C24.8498 11.6581 24.1613 11.5442 23.445 11.5442C22.9564 11.5442 22.4262 11.6442 21.8543 11.8441C21.2824 12.0439 20.9881 12.3549 20.9714 12.7769C20.9714 13.221 21.6016 13.4431 22.862 13.4431C22.9675 13.4431 23.148 13.4376 23.4034 13.4265C23.6588 13.4098 23.8254 13.3987 23.9031 13.3932V14.1594C23.5033 14.1705 23.0425 14.1927 22.5206 14.226C21.9986 14.2538 21.5295 14.3537 21.113 14.5259C20.7022 14.698 20.4967 14.9784 20.4967 15.367C20.4967 15.6891 20.6855 15.9528 21.0631 16.1582C21.4462 16.3581 21.8765 16.4581 22.354 16.4581C23.3145 16.4581 24.1585 16.2388 24.8859 15.8001C25.6188 15.3559 26.2351 14.7757 26.7348 14.0595V16.1666C26.1462 16.5386 25.5771 16.7829 25.0274 16.8995C24.4778 17.0161 23.917 17.0744 23.3451 17.0744C22.7843 17.0744 22.1513 16.9911 21.4462 16.8245C20.7466 16.6524 20.1441 16.4081 19.6389 16.0916C19.1392 15.7696 18.8893 15.3976 18.8893 14.9756C18.8893 14.5481 19.0503 14.2094 19.3724 13.9595C19.7 13.7097 20.0747 13.4848 20.4967 13.2849C20.2746 13.1572 20.0886 13.0517 19.9387 12.9684C19.7943 12.8851 19.6777 12.7852 19.5889 12.6686C19.5001 12.552 19.4557 12.3993 19.4557 12.2105C19.4557 11.8441 19.6028 11.5387 19.8971 11.2944C20.1969 11.0445 20.5689 10.8557 21.0131 10.728C21.4573 10.6003 21.9098 10.5115 22.3706 10.4615C22.8315 10.4116 23.2646 10.3866 23.6699 10.3866V9.03734H18.3313V8.03792H27.2179V9.03734ZM35.9795 9.03734H27.0263V8.03792H35.9795V9.03734ZM34.1888 12.6936C34.1888 11.361 33.5586 10.6947 32.2983 10.6947C31.9318 10.6947 31.5542 10.803 31.1656 11.0195C30.7825 11.2361 30.4382 11.5359 30.1328 11.919C29.833 12.3021 29.5887 12.7574 29.3999 13.2849C29.2167 13.8124 29.1251 14.3593 29.1251 14.9256V17.3492L27.7592 16.633V10.3699H29.1917V11.361C29.3083 11.2722 29.4999 11.1223 29.7664 10.9113C30.0385 10.7003 30.366 10.5059 30.7492 10.3283C31.1378 10.1506 31.557 10.0618 32.0068 10.0618C32.4454 10.0618 32.8674 10.1561 33.2727 10.3449C33.678 10.5337 34.0389 10.7974 34.3554 11.1361C34.6719 11.4748 34.9218 11.8746 35.105 12.3354C35.2882 12.7907 35.3798 13.2793 35.3798 13.8013C35.3798 14.3898 35.2521 14.9923 34.9967 15.6086C34.7413 16.2193 34.336 16.8273 33.7807 17.4325L32.1733 16.4248C32.2733 16.2915 32.4593 16.0972 32.7313 15.8418C33.0034 15.5864 33.2422 15.3282 33.4476 15.0672C33.653 14.8007 33.8279 14.4731 33.9723 14.0844C34.1167 13.6902 34.1888 13.2266 34.1888 12.6936ZM44.3164 9.03734H43.4085V12.1939C43.0865 12.0051 42.6257 11.8413 42.026 11.7025C41.4263 11.5637 40.9155 11.4943 40.4936 11.4943C40.1438 11.4943 39.7245 11.5359 39.2359 11.6192C38.7529 11.6969 38.317 11.8385 37.9284 12.0439C37.5452 12.2438 37.3537 12.5103 37.3537 12.8435C37.3537 12.9823 37.4092 13.1294 37.5203 13.2849C37.6369 13.4348 37.8145 13.5098 38.0533 13.5098C38.3142 13.5098 38.6918 13.4209 39.186 13.2433C39.6857 13.06 40.0521 12.9351 40.2853 12.8685C40.5241 12.7963 40.8711 12.7602 41.3264 12.7602C41.7539 12.7602 42.1593 12.8379 42.5424 12.9934C42.931 13.1433 43.2392 13.3626 43.4668 13.6514C43.7 13.9401 43.8166 14.2732 43.8166 14.6508C43.8166 15.1005 43.6528 15.5086 43.3253 15.8751C42.9977 16.2415 42.6034 16.5303 42.1426 16.7412C41.6873 16.9467 41.2514 17.0633 40.835 17.091C41.2348 17.4908 41.6151 17.6907 41.976 17.6907C42.0926 17.6907 42.2176 17.674 42.3508 17.6407L43.192 19.0149C43.1476 19.0538 43.0393 19.101 42.8672 19.1565C42.7006 19.212 42.4563 19.2398 42.1343 19.2398C41.6734 19.2398 41.3236 19.1093 41.0849 18.8484C40.8461 18.5874 40.599 18.2348 40.3436 17.7906C40.0938 17.3465 39.8883 17.1244 39.7273 17.1244C39.3109 17.1077 38.8972 17.0661 38.4864 16.9994C38.081 16.9272 37.7035 16.7829 37.3537 16.5663C37.0039 16.3498 36.829 16.0528 36.829 15.6752C36.829 15.4253 36.9123 15.2477 37.0788 15.1422C37.251 15.0311 37.4453 14.9756 37.6618 14.9756C37.9284 14.9756 38.1421 15.0145 38.3031 15.0922C38.4642 15.1699 38.6613 15.2893 38.8945 15.4503C39.1332 15.6058 39.3692 15.7252 39.6024 15.8084C39.8411 15.8917 40.1604 15.9334 40.5602 15.9334C40.8433 15.9334 41.2181 15.8834 41.6845 15.7835C42.1565 15.6835 42.5729 15.5364 42.9338 15.3421C43.2947 15.1422 43.4752 14.9006 43.4752 14.6175C43.4752 14.462 43.4196 14.3371 43.3086 14.2427C43.1976 14.1427 43.0698 14.0761 42.9255 14.0428C42.7811 14.0039 42.6312 13.9845 42.4757 13.9845C42.2703 13.9845 42.051 14.015 41.8178 14.0761C41.5901 14.1372 41.146 14.2566 40.4852 14.4342C39.8245 14.6119 39.4192 14.7008 39.2693 14.7008C38.8861 14.7008 38.4919 14.5925 38.0866 14.3759C37.6868 14.1538 37.3509 13.8457 37.0788 13.4515C36.8123 13.0573 36.6763 12.6269 36.6708 12.1605C36.6708 11.6553 36.8595 11.2472 37.2371 10.9363C37.6147 10.6198 38.0672 10.3949 38.5946 10.2616C39.1221 10.1284 39.6191 10.0618 40.0855 10.0618C40.3964 10.0618 40.7878 10.1117 41.2598 10.2117C41.7373 10.3061 42.101 10.3866 42.3508 10.4532V9.03734H35.7213V8.03792H44.3164V9.03734ZM53.003 9.03734H50.7293V10.6781C50.8792 10.7114 51.0042 10.753 51.1041 10.803C51.2041 10.8474 51.2679 10.8807 51.2957 10.9029V11.8857C50.6349 11.6581 49.9464 11.5442 49.2302 11.5442C48.7416 11.5442 48.2113 11.6442 47.6394 11.8441C47.0675 12.0439 46.7733 12.3549 46.7566 12.7769C46.7566 13.221 47.3868 13.4431 48.6472 13.4431C48.7527 13.4431 48.9331 13.4376 49.1885 13.4265C49.444 13.4098 49.6105 13.3987 49.6883 13.3932V14.1594C49.2885 14.1705 48.8276 14.1927 48.3057 14.226C47.7838 14.2538 47.3146 14.3537 46.8982 14.5259C46.4873 14.698 46.2819 14.9784 46.2819 15.367C46.2819 15.6891 46.4707 15.9528 46.8482 16.1582C47.2313 16.3581 47.6616 16.4581 48.1391 16.4581C49.0997 16.4581 49.9437 16.2388 50.671 15.8001C51.4039 15.3559 52.0202 14.7757 52.52 14.0595V16.1666C51.9314 16.5386 51.3623 16.7829 50.8126 16.8995C50.2629 17.0161 49.7021 17.0744 49.1302 17.0744C48.5695 17.0744 47.9365 16.9911 47.2313 16.8245C46.5317 16.6524 45.9293 16.4081 45.424 16.0916C44.9243 15.7696 44.6745 15.3976 44.6745 14.9756C44.6745 14.5481 44.8355 14.2094 45.1575 13.9595C45.4851 13.7097 45.8599 13.4848 46.2819 13.2849C46.0598 13.1572 45.8738 13.0517 45.7239 12.9684C45.5795 12.8851 45.4629 12.7852 45.3741 12.6686C45.2852 12.552 45.2408 12.3993 45.2408 12.2105C45.2408 11.8441 45.388 11.5387 45.6822 11.2944C45.9821 11.0445 46.3541 10.8557 46.7983 10.728C47.2424 10.6003 47.695 10.5115 48.1558 10.4615C48.6167 10.4116 49.0497 10.3866 49.4551 10.3866V9.03734H44.1165V8.03792H53.003V9.03734Z" fill="white"/>
<rect width="26.2975" height="23.2975" transform="translate(54.0747 0.351242)" fill="#0576B7"/>
<path d="M68.3646 8.46296H65.6162L65.6329 9.62895C66.3713 9.90102 66.9127 10.2619 67.2569 10.7117C67.6067 11.1559 67.7816 11.7888 67.7816 12.6106C67.7816 13.2269 67.6428 13.7904 67.3652 14.3013C67.0932 14.8121 66.7711 15.2341 66.3991 15.5672C66.0327 15.8948 65.6829 16.1558 65.3497 16.3501C65.0166 16.5389 64.8278 16.6333 64.7834 16.6333C64.7001 16.6333 64.4697 16.45 64.0921 16.0836C63.7201 15.7171 63.4147 15.4117 63.176 15.1674C63.6979 15.1397 64.2781 14.9675 64.9166 14.6511C65.5551 14.3346 66.1021 13.9265 66.5573 13.4268C67.0126 12.9215 67.2403 12.3885 67.2403 11.8277C67.2403 11.539 67.1542 11.3002 66.9821 11.1114C66.81 10.9171 66.5851 10.7727 66.3075 10.6783C66.0354 10.5784 65.7412 10.5284 65.4247 10.5284C64.4641 10.584 63.7173 10.8949 63.1843 11.4612C62.6568 12.022 62.3015 12.7577 62.1182 13.6683C62.0794 13.6572 61.8489 13.5656 61.427 13.3935C61.005 13.2158 60.6663 13.0742 60.4109 12.9687C60.4109 12.6966 60.4636 12.4246 60.5691 12.1525C60.6802 11.8804 60.8051 11.6306 60.9439 11.4029C61.0883 11.1753 61.1605 11.0559 61.1605 11.0448C61.1605 10.8949 61.0244 10.7922 60.7524 10.7366C60.4803 10.6811 60.2415 10.6534 60.0361 10.6534C59.5808 10.6534 59.1505 10.7727 58.7452 11.0115C58.3454 11.2502 58.0289 11.5556 57.7957 11.9276C57.5625 12.2941 57.4459 12.6633 57.4459 13.0353C57.4459 13.4518 57.5597 13.8543 57.7874 14.243C58.015 14.6316 58.2593 14.9675 58.5203 15.2507C58.7813 15.5283 59.1033 15.8393 59.4864 16.1835C59.8751 16.5222 60.0805 16.7193 60.1027 16.7748C59.7474 16.6527 59.3282 16.4722 58.8451 16.2335C58.3676 15.9947 57.8901 15.6949 57.4126 15.334C56.9351 14.9675 56.5381 14.5539 56.2216 14.0931C55.9107 13.6322 55.7552 13.138 55.7552 12.6106C55.7552 12.0054 55.9274 11.4668 56.2716 10.9948C56.6158 10.5173 57.0573 10.1481 57.5958 9.88714C58.14 9.62062 58.698 9.48737 59.2699 9.48737C59.7252 9.48737 60.1305 9.554 60.4858 9.68725C60.8412 9.81496 61.166 9.96765 61.4603 10.1453C61.7601 10.323 61.9239 10.4118 61.9517 10.4118C61.9572 10.4118 62.1099 10.3424 62.4097 10.2036C62.7096 10.0648 63.0177 9.93711 63.3342 9.82051C63.6562 9.70391 63.9283 9.62895 64.1504 9.59564L64.1671 8.46296H55.5054V7.46353H68.3646V8.46296ZM71.0797 6.58904C71.0575 6.61125 70.9937 6.62235 70.8882 6.62235C70.7994 6.62235 70.7216 6.61125 70.655 6.58904C70.2552 5.80615 69.9998 5.32865 69.8888 5.15653C69.7666 4.98996 69.6111 4.88169 69.4224 4.83171C69.2391 4.78174 69.0642 4.73455 68.8977 4.69013C68.7367 4.64016 68.6062 4.52911 68.5062 4.35699C68.484 4.32367 68.4424 4.19597 68.3813 3.97387C68.3202 3.74623 68.2008 3.48249 68.0232 3.18266V2.99111H68.348C68.9976 3.19099 69.4585 3.37422 69.7305 3.54079C70.0026 3.70181 70.1747 3.86005 70.2469 4.01552C70.3246 4.16543 70.4329 4.47914 70.5717 4.95664C70.7105 5.42859 70.8743 5.85335 71.0631 6.23091C71.0686 6.28088 71.0714 6.32808 71.0714 6.37249C71.077 6.41136 71.0797 6.48354 71.0797 6.58904ZM71.5711 8.46296H68.1814V7.46353H71.5711V8.46296ZM70.6217 16.6916L69.2225 15.917V9.48737H70.6217V16.6916ZM78.8836 8.46296H74.6693V15.1674C74.6693 15.3618 74.736 15.5505 74.8692 15.7338C75.008 15.917 75.158 16.0086 75.319 16.0086C76.1463 16.0086 76.5599 15.1536 76.5599 13.4434L78.234 14.4012C77.9619 15.0064 77.5899 15.5117 77.1179 15.917C76.6515 16.3168 76.0352 16.5167 75.269 16.5167C74.8859 16.5111 74.5333 16.4112 74.2113 16.2168C73.8948 16.0169 73.6422 15.7643 73.4534 15.4589C73.2646 15.148 73.1702 14.8398 73.1702 14.5345V8.46296H71.4295V7.46353H73.1702V4.66514L74.6693 5.70621V7.46353H78.8836V8.46296Z" fill="white"/>
</svg>
